<svg xmlns="http://www.w3.org/2000/svg" xmlns:xlink="http://www.w3.org/1999/xlink" version="1.1" class="marks" width="1456" height="330" viewBox="0 0 1456 330"><rect width="1456" height="330" fill="white"/><g fill="none" stroke-miterlimit="10" transform="translate(51,11)"><g class="mark-group role-frame root" role="graphics-object" aria-roledescription="group mark container"><g transform="translate(0,0)"><path class="background" aria-hidden="true" d="M0.5,0.5h1400v200h-1400Z" stroke="#ddd"/><g><g class="mark-group role-axis" aria-hidden="true"><g transform="translate(0.5,0.5)"><path class="background" aria-hidden="true" d="M0,0h0v0h0Z" pointer-events="none"/><g><g class="mark-rule role-axis-grid" pointer-events="none"><line transform="translate(0,200)" x2="1400" y2="0" stroke="#ddd" stroke-width="1" opacity="1"/><line transform="translate(0,171)" x2="1400" y2="0" stroke="#ddd" stroke-width="1" opacity="1"/><line transform="translate(0,143)" x2="1400" y2="0" stroke="#ddd" stroke-width="1" opacity="1"/><line transform="translate(0,114)" x2="1400" y2="0" stroke="#ddd" stroke-width="1" opacity="1"/><line transform="translate(0,86)" x2="1400" y2="0" stroke="#ddd" stroke-width="1" opacity="1"/><line transform="translate(0,57)" x2="1400" y2="0" stroke="#ddd" stroke-width="1" opacity="1"/><line transform="translate(0,29)" x2="1400" y2="0" stroke="#ddd" stroke-width="1" opacity="1"/><line transform="translate(0,0)" x2="1400" y2="0" stroke="#ddd" stroke-width="1" opacity="1"/></g></g><path class="foreground" aria-hidden="true" d="" pointer-events="none" display="none"/></g></g><g class="mark-group role-axis" role="graphics-symbol" aria-roledescription="axis" aria-label="X-axis titled 'País' for a discrete scale with 70 values: Brazil, England, Germany, Argentina, Sweden, ending with Bahrain"><g transform="translate(0.5,200.5)"><path class="background" aria-hidden="true" d="M0,0h0v0h0Z" pointer-events="none"/><g><g class="mark-rule role-axis-tick" pointer-events="none"><line transform="translate(10,0)" x2="0" y2="5" stroke="#888" stroke-width="1" opacity="1"/><line transform="translate(30,0)" x2="0" y2="5" stroke="#888" stroke-width="1" opacity="1"/><line transform="translate(50,0)" x2="0" y2="5" stroke="#888" stroke-width="1" opacity="1"/><line transform="translate(70,0)" x2="0" y2="5" stroke="#888" stroke-width="1" opacity="1"/><line transform="translate(90,0)" x2="0" y2="5" stroke="#888" stroke-width="1" opacity="1"/><line transform="translate(110,0)" x2="0" y2="5" stroke="#888" stroke-width="1" opacity="1"/><line transform="translate(130,0)" x2="0" y2="5" stroke="#888" stroke-width="1" opacity="1"/><line transform="translate(150,0)" x2="0" y2="5" stroke="#888" stroke-width="1" opacity="1"/><line transform="translate(170,0)" x2="0" y2="5" stroke="#888" stroke-width="1" opacity="1"/><line transform="translate(190,0)" x2="0" y2="5" stroke="#888" stroke-width="1" opacity="1"/><line transform="translate(210,0)" x2="0" y2="5" stroke="#888" stroke-width="1" opacity="1"/><line transform="translate(230,0)" x2="0" y2="5" stroke="#888" stroke-width="1" opacity="1"/><line transform="translate(250,0)" x2="0" y2="5" stroke="#888" stroke-width="1" opacity="1"/><line transform="translate(270,0)" x2="0" y2="5" stroke="#888" stroke-width="1" opacity="1"/><line transform="translate(290,0)" x2="0" y2="5" stroke="#888" stroke-width="1" opacity="1"/><line transform="translate(310,0)" x2="0" y2="5" stroke="#888" stroke-width="1" opacity="1"/><line transform="translate(330,0)" x2="0" y2="5" stroke="#888" stroke-width="1" opacity="1"/><line transform="translate(350,0)" x2="0" y2="5" stroke="#888" stroke-width="1" opacity="1"/><line transform="translate(370,0)" x2="0" y2="5" stroke="#888" stroke-width="1" opacity="1"/><line transform="translate(390,0)" x2="0" y2="5" stroke="#888" stroke-width="1" opacity="1"/><line transform="translate(410,0)" x2="0" y2="5" stroke="#888" stroke-width="1" opacity="1"/><line transform="translate(430,0)" x2="0" y2="5" stroke="#888" stroke-width="1" opacity="1"/><line transform="translate(450,0)" x2="0" y2="5" stroke="#888" stroke-width="1" opacity="1"/><line transform="translate(470,0)" x2="0" y2="5" stroke="#888" stroke-width="1" opacity="1"/><line transform="translate(490,0)" x2="0" y2="5" stroke="#888" stroke-width="1" opacity="1"/><line transform="translate(510,0)" x2="0" y2="5" stroke="#888" stroke-width="1" opacity="1"/><line transform="translate(530,0)" x2="0" y2="5" stroke="#888" stroke-width="1" opacity="1"/><line transform="translate(550,0)" x2="0" y2="5" stroke="#888" stroke-width="1" opacity="1"/><line transform="translate(570,0)" x2="0" y2="5" stroke="#888" stroke-width="1" opacity="1"/><line transform="translate(590,0)" x2="0" y2="5" stroke="#888" stroke-width="1" opacity="1"/><line transform="translate(610,0)" x2="0" y2="5" stroke="#888" stroke-width="1" opacity="1"/><line transform="translate(630,0)" x2="0" y2="5" stroke="#888" stroke-width="1" opacity="1"/><line transform="translate(650,0)" x2="0" y2="5" stroke="#888" stroke-width="1" opacity="1"/><line transform="translate(670,0)" x2="0" y2="5" stroke="#888" stroke-width="1" opacity="1"/><line transform="translate(690,0)" x2="0" y2="5" stroke="#888" stroke-width="1" opacity="1"/><line transform="translate(710,0)" x2="0" y2="5" stroke="#888" stroke-width="1" opacity="1"/><line transform="translate(730,0)" x2="0" y2="5" stroke="#888" stroke-width="1" opacity="1"/><line transform="translate(750,0)" x2="0" y2="5" stroke="#888" stroke-width="1" opacity="1"/><line transform="translate(770,0)" x2="0" y2="5" stroke="#888" stroke-width="1" opacity="1"/><line transform="translate(790,0)" x2="0" y2="5" stroke="#888" stroke-width="1" opacity="1"/><line transform="translate(810,0)" x2="0" y2="5" stroke="#888" stroke-width="1" opacity="1"/><line transform="translate(830,0)" x2="0" y2="5" stroke="#888" stroke-width="1" opacity="1"/><line transform="translate(850,0)" x2="0" y2="5" stroke="#888" stroke-width="1" opacity="1"/><line transform="translate(870,0)" x2="0" y2="5" stroke="#888" stroke-width="1" opacity="1"/><line transform="translate(890,0)" x2="0" y2="5" stroke="#888" stroke-width="1" opacity="1"/><line transform="translate(910,0)" x2="0" y2="5" stroke="#888" stroke-width="1" opacity="1"/><line transform="translate(930,0)" x2="0" y2="5" stroke="#888" stroke-width="1" opacity="1"/><line transform="translate(950,0)" x2="0" y2="5" stroke="#888" stroke-width="1" opacity="1"/><line transform="translate(970,0)" x2="0" y2="5" stroke="#888" stroke-width="1" opacity="1"/><line transform="translate(990,0)" x2="0" y2="5" stroke="#888" stroke-width="1" opacity="1"/><line transform="translate(1010,0)" x2="0" y2="5" stroke="#888" stroke-width="1" opacity="1"/><line transform="translate(1030,0)" x2="0" y2="5" stroke="#888" stroke-width="1" opacity="1"/><line transform="translate(1050,0)" x2="0" y2="5" stroke="#888" stroke-width="1" opacity="1"/><line transform="translate(1070,0)" x2="0" y2="5" stroke="#888" stroke-width="1" opacity="1"/><line transform="translate(1090,0)" x2="0" y2="5" stroke="#888" stroke-width="1" opacity="1"/><line transform="translate(1110,0)" x2="0" y2="5" stroke="#888" stroke-width="1" opacity="1"/><line transform="translate(1130,0)" x2="0" y2="5" stroke="#888" stroke-width="1" opacity="1"/><line transform="translate(1150,0)" x2="0" y2="5" stroke="#888" stroke-width="1" opacity="1"/><line transform="translate(1170,0)" x2="0" y2="5" stroke="#888" stroke-width="1" opacity="1"/><line transform="translate(1190,0)" x2="0" y2="5" stroke="#888" stroke-width="1" opacity="1"/><line transform="translate(1210,0)" x2="0" y2="5" stroke="#888" stroke-width="1" opacity="1"/><line transform="translate(1230,0)" x2="0" y2="5" stroke="#888" stroke-width="1" opacity="1"/><line transform="translate(1250,0)" x2="0" y2="5" stroke="#888" stroke-width="1" opacity="1"/><line transform="translate(1270,0)" x2="0" y2="5" stroke="#888" stroke-width="1" opacity="1"/><line transform="translate(1290,0)" x2="0" y2="5" stroke="#888" stroke-width="1" opacity="1"/><line transform="translate(1310,0)" x2="0" y2="5" stroke="#888" stroke-width="1" opacity="1"/><line transform="translate(1330,0)" x2="0" y2="5" stroke="#888" stroke-width="1" opacity="1"/><line transform="translate(1350,0)" x2="0" y2="5" stroke="#888" stroke-width="1" opacity="1"/><line transform="translate(1370,0)" x2="0" y2="5" stroke="#888" stroke-width="1" opacity="1"/><line transform="translate(1390,0)" x2="0" y2="5" stroke="#888" stroke-width="1" opacity="1"/></g><g class="mark-text role-axis-label" pointer-events="none"><text text-anchor="end" transform="translate(9.5,7) rotate(315) translate(0,9)" font-family="sans-serif" font-size="12px" fill="#000" opacity="1">Brazil</text><text text-anchor="end" transform="translate(29.5,7) rotate(315) translate(0,9)" font-family="sans-serif" font-size="12px" fill="#000" opacity="1">England</text><text text-anchor="end" transform="translate(49.5,7) rotate(315) translate(0,9)" font-family="sans-serif" font-size="12px" fill="#000" opacity="1">Germany</text><text text-anchor="end" transform="translate(69.5,7) rotate(315) translate(0,9)" font-family="sans-serif" font-size="12px" fill="#000" opacity="1">Argentina</text><text text-anchor="end" transform="translate(89.5,7) rotate(315) translate(0,9)" font-family="sans-serif" font-size="12px" fill="#000" opacity="1">Sweden</text><text text-anchor="end" transform="translate(109.5,7) rotate(315) translate(0,9)" font-family="sans-serif" font-size="12px" fill="#000" opacity="1">South Korea</text><text text-anchor="end" transform="translate(129.5,7) rotate(315) translate(0,9)" font-family="sans-serif" font-size="12px" fill="#000" opacity="1">Mexico</text><text text-anchor="end" transform="translate(149.5,7) rotate(315) translate(0,9)" font-family="sans-serif" font-size="12px" fill="#000" opacity="1">France</text><text text-anchor="end" transform="translate(169.5,7) rotate(315) translate(0,9)" font-family="sans-serif" font-size="12px" fill="#000" opacity="1">Hungary</text><text text-anchor="end" transform="translate(189.5,7) rotate(315) translate(0,9)" font-family="sans-serif" font-size="12px" fill="#000" opacity="1">Italy</text><text text-anchor="end" transform="translate(209.5,7) rotate(315) translate(0,9)" font-family="sans-serif" font-size="12px" fill="#000" opacity="1">Spain</text><text text-anchor="end" transform="translate(229.5,7) rotate(315) translate(0,9)" font-family="sans-serif" font-size="12px" fill="#000" opacity="1">Netherlands</text><text text-anchor="end" transform="translate(249.5,7) rotate(315) translate(0,9)" font-family="sans-serif" font-size="12px" fill="#000" opacity="1">Uruguay</text><text text-anchor="end" transform="translate(269.5,7) rotate(315) translate(0,9)" font-family="sans-serif" font-size="12px" fill="#000" opacity="1">Scotland</text><text text-anchor="end" transform="translate(289.5,7) rotate(315) translate(0,9)" font-family="sans-serif" font-size="12px" fill="#000" opacity="1">Denmark</text><text text-anchor="end" transform="translate(309.5,7) rotate(315) translate(0,9)" font-family="sans-serif" font-size="12px" fill="#000" opacity="1">Japan</text><text text-anchor="end" transform="translate(329.5,7) rotate(315) translate(0,9)" font-family="sans-serif" font-size="12px" fill="#000" opacity="1">Russia</text><text text-anchor="end" transform="translate(349.5,7) rotate(315) translate(0,9)" font-family="sans-serif" font-size="12px" fill="#000" opacity="1">Poland</text><text text-anchor="end" transform="translate(369.5,7) rotate(315) translate(0,9)" font-family="sans-serif" font-size="12px" fill="#000" opacity="1">Belgium</text><text text-anchor="end" transform="translate(389.5,7) rotate(315) translate(0,9)" font-family="sans-serif" font-size="12px" fill="#000" opacity="1">Egypt</text><text text-anchor="end" transform="translate(409.5,7) rotate(315) translate(0,9)" font-family="sans-serif" font-size="12px" fill="#000" opacity="1">Austria</text><text text-anchor="end" transform="translate(429.5,7) rotate(315) translate(0,9)" font-family="sans-serif" font-size="12px" fill="#000" opacity="1">Zambia</text><text text-anchor="end" transform="translate(449.5,7) rotate(315) translate(0,9)" font-family="sans-serif" font-size="12px" fill="#000" opacity="1">China PR</text><text text-anchor="end" transform="translate(469.5,7) rotate(315) translate(0,9)" font-family="sans-serif" font-size="12px" fill="#000" opacity="1">Iran</text><text text-anchor="end" transform="translate(489.5,7) rotate(315) translate(0,9)" font-family="sans-serif" font-size="12px" fill="#000" opacity="1">United States</text><text text-anchor="end" transform="translate(509.5,7) rotate(315) translate(0,9)" font-family="sans-serif" font-size="12px" fill="#000" opacity="1">Portugal</text><text text-anchor="end" transform="translate(529.5,7) rotate(315) translate(0,9)" font-family="sans-serif" font-size="12px" fill="#000" opacity="1">Saudi Arabia</text><text text-anchor="end" transform="translate(549.5,7) rotate(315) translate(0,9)" font-family="sans-serif" font-size="12px" fill="#000" opacity="1">Thailand</text><text text-anchor="end" transform="translate(569.5,7) rotate(315) translate(0,9)" font-family="sans-serif" font-size="12px" fill="#000" opacity="1">Romania</text><text text-anchor="end" transform="translate(589.5,7) rotate(315) translate(0,9)" font-family="sans-serif" font-size="12px" fill="#000" opacity="1">Malaysia</text><text text-anchor="end" transform="translate(609.5,7) rotate(315) translate(0,9)" font-family="sans-serif" font-size="12px" fill="#000" opacity="1">Norway</text><text text-anchor="end" transform="translate(629.5,7) rotate(315) translate(0,9)" font-family="sans-serif" font-size="12px" fill="#000" opacity="1">Trinidad and Tobago</text><text text-anchor="end" transform="translate(649.5,7) rotate(315) translate(0,9)" font-family="sans-serif" font-size="12px" fill="#000" opacity="1">Ivory Coast</text><text text-anchor="end" transform="translate(669.5,7) rotate(315) translate(0,9)" font-family="sans-serif" font-size="12px" fill="#000" opacity="1">Costa Rica</text><text text-anchor="end" transform="translate(689.5,7) rotate(315) translate(0,9)" font-family="sans-serif" font-size="12px" fill="#000" opacity="1">Chile</text><text text-anchor="end" transform="translate(709.5,7) rotate(315) translate(0,9)" font-family="sans-serif" font-size="12px" fill="#000" opacity="1">Switzerland</text><text text-anchor="end" transform="translate(729.5,7) rotate(315) translate(0,9)" font-family="sans-serif" font-size="12px" fill="#000" opacity="1">Ghana</text><text text-anchor="end" transform="translate(749.5,7) rotate(315) translate(0,9)" font-family="sans-serif" font-size="12px" fill="#000" opacity="1">Nigeria</text><text text-anchor="end" transform="translate(769.5,7) rotate(315) translate(0,9)" font-family="sans-serif" font-size="12px" fill="#000" opacity="1">Iraq</text><text text-anchor="end" transform="translate(789.5,7) rotate(315) translate(0,9)" font-family="sans-serif" font-size="12px" fill="#000" opacity="1">Australia</text><text text-anchor="end" transform="translate(809.5,7) rotate(315) translate(0,9)" font-family="sans-serif" font-size="12px" fill="#000" opacity="1">Tunisia</text><text text-anchor="end" transform="translate(829.5,7) rotate(315) translate(0,9)" font-family="sans-serif" font-size="12px" fill="#000" opacity="1">Kuwait</text><text text-anchor="end" transform="translate(849.5,7) rotate(315) translate(0,9)" font-family="sans-serif" font-size="12px" fill="#000" opacity="1">Senegal</text><text text-anchor="end" transform="translate(869.5,7) rotate(315) translate(0,9)" font-family="sans-serif" font-size="12px" fill="#000" opacity="1">Morocco</text><text text-anchor="end" transform="translate(889.5,7) rotate(315) translate(0,9)" font-family="sans-serif" font-size="12px" fill="#000" opacity="1">Uganda</text><text text-anchor="end" transform="translate(909.5,7) rotate(315) translate(0,9)" font-family="sans-serif" font-size="12px" fill="#000" opacity="1">Indonesia</text><text text-anchor="end" transform="translate(929.5,7) rotate(315) translate(0,9)" font-family="sans-serif" font-size="12px" fill="#000" opacity="1">Paraguay</text><text text-anchor="end" transform="translate(949.5,7) rotate(315) translate(0,9)" font-family="sans-serif" font-size="12px" fill="#000" opacity="1">Algeria</text><text text-anchor="end" transform="translate(969.5,7) rotate(315) translate(0,9)" font-family="sans-serif" font-size="12px" fill="#000" opacity="1">Cameroon</text><text text-anchor="end" transform="translate(989.5,7) rotate(315) translate(0,9)" font-family="sans-serif" font-size="12px" fill="#000" opacity="1">Kenya</text><text text-anchor="end" transform="translate(1009.5,7) rotate(315) translate(0,9)" font-family="sans-serif" font-size="12px" fill="#000" opacity="1">Bulgaria</text><text text-anchor="end" transform="translate(1029.5,7) rotate(315) translate(0,9)" font-family="sans-serif" font-size="12px" fill="#000" opacity="1">Qatar</text><text text-anchor="end" transform="translate(1049.5,7) rotate(315) translate(0,9)" font-family="sans-serif" font-size="12px" fill="#000" opacity="1">Colombia</text><text text-anchor="end" transform="translate(1069.5,7) rotate(315) translate(0,9)" font-family="sans-serif" font-size="12px" fill="#000" opacity="1">Turkey</text><text text-anchor="end" transform="translate(1089.5,7) rotate(315) translate(0,9)" font-family="sans-serif" font-size="12px" fill="#000" opacity="1">Jamaica</text><text text-anchor="end" transform="translate(1109.5,7) rotate(315) translate(0,9)" font-family="sans-serif" font-size="12px" fill="#000" opacity="1">United Arab Emirates</text><text text-anchor="end" transform="translate(1129.5,7) rotate(315) translate(0,9)" font-family="sans-serif" font-size="12px" fill="#000" opacity="1">Honduras</text><text text-anchor="end" transform="translate(1149.5,7) rotate(315) translate(0,9)" font-family="sans-serif" font-size="12px" fill="#000" opacity="1">Republic of Ireland</text><text text-anchor="end" transform="translate(1169.5,7) rotate(315) translate(0,9)" font-family="sans-serif" font-size="12px" fill="#000" opacity="1">Greece</text><text text-anchor="end" transform="translate(1189.5,7) rotate(315) translate(0,9)" font-family="sans-serif" font-size="12px" fill="#000" opacity="1">Czechoslovakia</text><text text-anchor="end" transform="translate(1209.5,7) rotate(315) translate(0,9)" font-family="sans-serif" font-size="12px" fill="#000" opacity="1">Wales</text><text text-anchor="end" transform="translate(1229.5,7) rotate(315) translate(0,9)" font-family="sans-serif" font-size="12px" fill="#000" opacity="1">Peru</text><text text-anchor="end" transform="translate(1249.5,7) rotate(315) translate(0,9)" font-family="sans-serif" font-size="12px" fill="#000" opacity="1">Mali</text><text text-anchor="end" transform="translate(1269.5,7) rotate(315) translate(0,9)" font-family="sans-serif" font-size="12px" fill="#000" opacity="1">Yugoslavia</text><text text-anchor="end" transform="translate(1289.5,7) rotate(315) translate(0,9)" font-family="sans-serif" font-size="12px" fill="#000" opacity="1">Malawi</text><text text-anchor="end" transform="translate(1309.5,7) rotate(315) translate(0,9)" font-family="sans-serif" font-size="12px" fill="#000" opacity="1">Singapore</text><text text-anchor="end" transform="translate(1329.5,7) rotate(315) translate(0,9)" font-family="sans-serif" font-size="12px" fill="#000" opacity="1">Haiti</text><text text-anchor="end" transform="translate(1349.5,7) rotate(315) translate(0,9)" font-family="sans-serif" font-size="12px" fill="#000" opacity="1">Finland</text><text text-anchor="end" transform="translate(1369.5,7) rotate(315) translate(0,9)" font-family="sans-serif" font-size="12px" fill="#000" opacity="1">Myanmar</text><text text-anchor="end" transform="translate(1389.5,7) rotate(315) translate(0,9)" font-family="sans-serif" font-size="12px" fill="#000" opacity="1">Bahrain</text></g><g class="mark-rule role-axis-domain" pointer-events="none"><line transform="translate(0,0)" x2="1400" y2="0" stroke="#888" stroke-width="1" opacity="1"/></g><g class="mark-text role-axis-title" pointer-events="none"><text text-anchor="middle" transform="translate(700,110.42149327868651)" font-family="sans-serif" font-size="14px" font-weight="bold" fill="#000" opacity="1">País</text></g></g><path class="foreground" aria-hidden="true" d="" pointer-events="none" display="none"/></g></g><g class="mark-group role-axis" role="graphics-symbol" aria-roledescription="axis" aria-label="Y-axis titled 'Número de Vitórias' for a linear scale with values from 0 to 700"><g transform="translate(0.5,0.5)"><path class="background" aria-hidden="true" d="M0,0h0v0h0Z" pointer-events="none"/><g><g class="mark-rule role-axis-tick" pointer-events="none"><line transform="translate(0,200)" x2="-5" y2="0" stroke="#888" stroke-width="1" opacity="1"/><line transform="translate(0,171)" x2="-5" y2="0" stroke="#888" stroke-width="1" opacity="1"/><line transform="translate(0,143)" x2="-5" y2="0" stroke="#888" stroke-width="1" opacity="1"/><line transform="translate(0,114)" x2="-5" y2="0" stroke="#888" stroke-width="1" opacity="1"/><line transform="translate(0,86)" x2="-5" y2="0" stroke="#888" stroke-width="1" opacity="1"/><line transform="translate(0,57)" x2="-5" y2="0" stroke="#888" stroke-width="1" opacity="1"/><line transform="translate(0,29)" x2="-5" y2="0" stroke="#888" stroke-width="1" opacity="1"/><line transform="translate(0,0)" x2="-5" y2="0" stroke="#888" stroke-width="1" opacity="1"/></g><g class="mark-text role-axis-label" pointer-events="none"><text text-anchor="end" transform="translate(-7,204)" font-family="sans-serif" font-size="12px" fill="#000" opacity="1">0</text><text text-anchor="end" transform="translate(-7,175.42857142857144)" font-family="sans-serif" font-size="12px" fill="#000" opacity="1">100</text><text text-anchor="end" transform="translate(-7,146.85714285714286)" font-family="sans-serif" font-size="12px" fill="#000" opacity="1">200</text><text text-anchor="end" transform="translate(-7,118.28571428571428)" font-family="sans-serif" font-size="12px" fill="#000" opacity="1">300</text><text text-anchor="end" transform="translate(-7,89.71428571428572)" font-family="sans-serif" font-size="12px" fill="#000" opacity="1">400</text><text text-anchor="end" transform="translate(-7,61.14285714285714)" font-family="sans-serif" font-size="12px" fill="#000" opacity="1">500</text><text text-anchor="end" transform="translate(-7,32.571428571428584)" font-family="sans-serif" font-size="12px" fill="#000" opacity="1">600</text><text text-anchor="end" transform="translate(-7,4)" font-family="sans-serif" font-size="12px" fill="#000" opacity="1">700</text></g><g class="mark-rule role-axis-domain" pointer-events="none"><line transform="translate(0,200)" x2="0" y2="-200" stroke="#888" stroke-width="1" opacity="1"/></g><g class="mark-text role-axis-title" pointer-events="none"><text text-anchor="middle" transform="translate(-31.021484375,100) rotate(-90) translate(0,-3)" font-family="sans-serif" font-size="14px" font-weight="bold" fill="#000" opacity="1">Número de Vitórias</text></g></g><path class="foreground" aria-hidden="true" d="" pointer-events="none" display="none"/></g></g><g class="mark-rect role-mark marks" role="graphics-object" aria-roledescription="rect mark container"><path aria-label="País: England; Número de Vitórias: 614; winner: England" role="graphics-symbol" aria-roledescription="bar" d="M21,24.571428571428577h18v175.42857142857142h-18Z" fill="rgb(22, 96, 151)"/><path aria-label="País: Scotland; Número de Vitórias: 394; winner: Scotland" role="graphics-symbol" aria-roledescription="bar" d="M261,87.42857142857143h18v112.57142857142857h-18Z" fill="rgb(51, 211, 232)"/><path aria-label="País: Wales; Número de Vitórias: 229; winner: Wales" role="graphics-symbol" aria-roledescription="bar" d="M1201,134.57142857142856h18v65.42857142857144h-18Z" fill="rgb(188, 250, 253)"/><path aria-label="País: United States; Número de Vitórias: 340; winner: United States" role="graphics-symbol" aria-roledescription="bar" d="M481,102.85714285714285h18v97.14285714285715h-18Z" fill="rgb(144, 247, 252)"/><path aria-label="País: Argentina; Número de Vitórias: 579; winner: Argentina" role="graphics-symbol" aria-roledescription="bar" d="M61,34.57142857142856h18v165.42857142857144h-18Z" fill="rgb(49, 55, 64)"/><path aria-label="País: Austria; Número de Vitórias: 356; winner: Austria" role="graphics-symbol" aria-roledescription="bar" d="M401,98.28571428571429h18v101.71428571428571h-18Z" fill="rgb(47, 60, 77)"/><path aria-label="País: Hungary; Número de Vitórias: 465; winner: Hungary" role="graphics-symbol" aria-roledescription="bar" d="M161,67.14285714285715h18v132.85714285714283h-18Z" fill="rgb(0, 120, 178)"/><path aria-label="País: Uruguay; Número de Vitórias: 421; winner: Uruguay" role="graphics-symbol" aria-roledescription="bar" d="M241,79.71428571428572h18v120.28571428571428h-18Z" fill="rgb(166, 249, 252)"/><path aria-label="País: France; Número de Vitórias: 466; winner: France" role="graphics-symbol" aria-roledescription="bar" d="M141,66.85714285714286h18v133.14285714285714h-18Z" fill="rgb(15, 102, 158)"/><path aria-label="País: Netherlands; Número de Vitórias: 440; winner: Netherlands" role="graphics-symbol" aria-roledescription="bar" d="M221,74.28571428571429h18v125.71428571428571h-18Z" fill="rgb(11, 172, 209)"/><path aria-label="País: Belgium; Número de Vitórias: 370; winner: Belgium" role="graphics-symbol" aria-roledescription="bar" d="M361,94.28571428571428h18v105.71428571428572h-18Z" fill="rgb(46, 65, 91)"/><path aria-label="País: Trinidad and Tobago; Número de Vitórias: 317; winner: Trinidad and Tobago" role="graphics-symbol" aria-roledescription="bar" d="M621,109.42857142857143h18v90.57142857142857h-18Z" fill="rgb(74, 236, 247)"/><path aria-label="País: Czechoslovakia; Número de Vitórias: 230; winner: Czechoslovakia" role="graphics-symbol" aria-roledescription="bar" d="M1181,134.2857142857143h18v65.7142857142857h-18Z" fill="rgb(30, 87, 137)"/><path aria-label="País: Switzerland; Número de Vitórias: 308; winner: Switzerland" role="graphics-symbol" aria-roledescription="bar" d="M701,112.00000000000001h18v87.99999999999999h-18Z" fill="rgb(67, 230, 243)"/><path aria-label="País: Sweden; Número de Vitórias: 535; winner: Sweden" role="graphics-symbol" aria-roledescription="bar" d="M81,47.14285714285715h18v152.85714285714283h-18Z" fill="rgb(64, 227, 242)"/><path aria-label="País: Germany; Número de Vitórias: 588; winner: Germany" role="graphics-symbol" aria-roledescription="bar" d="M41,32.00000000000001h18v168h-18Z" fill="rgb(12, 105, 162)"/><path aria-label="País: Italy; Número de Vitórias: 465; winner: Italy" role="graphics-symbol" aria-roledescription="bar" d="M181,67.14285714285715h18v132.85714285714283h-18Z" fill="rgb(0, 132, 186)"/><path aria-label="País: Russia; Número de Vitórias: 376; winner: Russia" role="graphics-symbol" aria-roledescription="bar" d="M321,92.57142857142857h18v107.42857142857143h-18Z" fill="rgb(46, 204, 228)"/><path aria-label="País: Norway; Número de Vitórias: 318; winner: Norway" role="graphics-symbol" aria-roledescription="bar" d="M601,109.14285714285714h18v90.85714285714286h-18Z" fill="rgb(19, 178, 213)"/><path aria-label="País: Denmark; Número de Vitórias: 391; winner: Denmark" role="graphics-symbol" aria-roledescription="bar" d="M281,88.28571428571428h18v111.71428571428572h-18Z" fill="rgb(28, 90, 143)"/><path aria-label="País: Brazil; Número de Vitórias: 664; winner: Brazil" role="graphics-symbol" aria-roledescription="bar" d="M1,10.285714285714276h18v189.71428571428572h-18Z" fill="rgb(46, 68, 98)"/><path aria-label="País: China PR; Número de Vitórias: 345; winner: China PR" role="graphics-symbol" aria-roledescription="bar" d="M441,101.42857142857142h18v98.57142857142858h-18Z" fill="rgb(38, 79, 121)"/><path aria-label="País: Greece; Número de Vitórias: 235; winner: Greece" role="graphics-symbol" aria-roledescription="bar" d="M1161,132.85714285714286h18v67.14285714285714h-18Z" fill="rgb(5, 111, 169)"/><path aria-label="País: Finland; Número de Vitórias: 209; winner: Finland" role="graphics-symbol" aria-roledescription="bar" d="M1341,140.28571428571428h18v59.71428571428572h-18Z" fill="rgb(19, 99, 155)"/><path aria-label="País: Paraguay; Número de Vitórias: 269; winner: Paraguay" role="graphics-symbol" aria-roledescription="bar" d="M921,123.14285714285714h18v76.85714285714286h-18Z" fill="rgb(23, 181, 215)"/><path aria-label="País: Costa Rica; Número de Vitórias: 309; winner: Costa Rica" role="graphics-symbol" aria-roledescription="bar" d="M661,111.7142857142857h18v88.2857142857143h-18Z" fill="rgb(33, 84, 132)"/><path aria-label="País: Spain; Número de Vitórias: 449; winner: Spain" role="graphics-symbol" aria-roledescription="bar" d="M201,71.71428571428571h18v128.28571428571428h-18Z" fill="rgb(61, 224, 240)"/><path aria-label="País: Poland; Número de Vitórias: 376; winner: Poland" role="graphics-symbol" aria-roledescription="bar" d="M341,92.57142857142857h18v107.42857142857143h-18Z" fill="rgb(32, 188, 218)"/><path aria-label="País: Romania; Número de Vitórias: 328; winner: Romania" role="graphics-symbol" aria-roledescription="bar" d="M561,106.28571428571428h18v93.71428571428572h-18Z" fill="rgb(43, 201, 226)"/><path aria-label="País: Yugoslavia; Número de Vitórias: 223; winner: Yugoslavia" role="graphics-symbol" aria-roledescription="bar" d="M1261,136.2857142857143h18v63.714285714285694h-18Z" fill="rgb(211, 252, 254)"/><path aria-label="País: Mexico; Número de Vitórias: 501; winner: Mexico" role="graphics-symbol" aria-roledescription="bar" d="M121,56.85714285714285h18v143.14285714285717h-18Z" fill="rgb(4, 162, 203)"/><path aria-label="País: Australia; Número de Vitórias: 287; winner: Australia" role="graphics-symbol" aria-roledescription="bar" d="M781,118.00000000000001h18v81.99999999999999h-18Z" fill="rgb(48, 58, 71)"/><path aria-label="País: Egypt; Número de Vitórias: 368; winner: Egypt" role="graphics-symbol" aria-roledescription="bar" d="M381,94.85714285714286h18v105.14285714285714h-18Z" fill="rgb(25, 93, 148)"/><path aria-label="País: Republic of Ireland; Número de Vitórias: 236; winner: Republic of Ireland" role="graphics-symbol" aria-roledescription="bar" d="M1141,132.57142857142856h18v67.42857142857144h-18Z" fill="rgb(41, 197, 224)"/><path aria-label="País: Turkey; Número de Vitórias: 248; winner: Turkey" role="graphics-symbol" aria-roledescription="bar" d="M1061,129.14285714285714h18v70.85714285714286h-18Z" fill="rgb(80, 243, 250)"/><path aria-label="País: Jamaica; Número de Vitórias: 246; winner: Jamaica" role="graphics-symbol" aria-roledescription="bar" d="M1081,129.71428571428572h18v70.28571428571428h-18Z" fill="rgb(0, 138, 190)"/><path aria-label="País: Portugal; Número de Vitórias: 340; winner: Portugal" role="graphics-symbol" aria-roledescription="bar" d="M501,102.85714285714285h18v97.14285714285715h-18Z" fill="rgb(36, 191, 220)"/><path aria-label="País: Haiti; Número de Vitórias: 210; winner: Haiti" role="graphics-symbol" aria-roledescription="bar" d="M1321,140h18v60h-18Z" fill="rgb(2, 114, 173)"/><path aria-label="País: Kenya; Número de Vitórias: 263; winner: Kenya" role="graphics-symbol" aria-roledescription="bar" d="M981,124.85714285714286h18v75.14285714285714h-18Z" fill="rgb(1, 145, 194)"/><path aria-label="País: Chile; Número de Vitórias: 309; winner: Chile" role="graphics-symbol" aria-roledescription="bar" d="M681,111.7142857142857h18v88.2857142857143h-18Z" fill="rgb(40, 76, 116)"/><path aria-label="País: Japan; Número de Vitórias: 383; winner: Japan" role="graphics-symbol" aria-roledescription="bar" d="M301,90.57142857142857h18v109.42857142857143h-18Z" fill="rgb(0, 142, 192)"/><path aria-label="País: Honduras; Número de Vitórias: 239; winner: Honduras" role="graphics-symbol" aria-roledescription="bar" d="M1121,131.71428571428572h18v68.28571428571428h-18Z" fill="rgb(0, 117, 176)"/><path aria-label="País: Peru; Número de Vitórias: 229; winner: Peru" role="graphics-symbol" aria-roledescription="bar" d="M1221,134.57142857142856h18v65.42857142857144h-18Z" fill="rgb(28, 185, 217)"/><path aria-label="País: Uganda; Número de Vitórias: 279; winner: Uganda" role="graphics-symbol" aria-roledescription="bar" d="M881,120.28571428571428h18v79.71428571428572h-18Z" fill="rgb(100, 244, 251)"/><path aria-label="País: Bulgaria; Número de Vitórias: 259; winner: Bulgaria" role="graphics-symbol" aria-roledescription="bar" d="M1001,126h18v74h-18Z" fill="rgb(45, 70, 105)"/><path aria-label="País: Indonesia; Número de Vitórias: 276; winner: Indonesia" role="graphics-symbol" aria-roledescription="bar" d="M901,121.14285714285712h18v78.85714285714288h-18Z" fill="rgb(0, 123, 180)"/><path aria-label="País: Colombia; Número de Vitórias: 251; winner: Colombia" role="graphics-symbol" aria-roledescription="bar" d="M1041,128.28571428571428h18v71.71428571428572h-18Z" fill="rgb(35, 81, 126)"/><path aria-label="País: Iran; Número de Vitórias: 343; winner: Iran" role="graphics-symbol" aria-roledescription="bar" d="M461,102h18v98h-18Z" fill="rgb(0, 126, 182)"/><path aria-label="País: Zambia; Número de Vitórias: 355; winner: Zambia" role="graphics-symbol" aria-roledescription="bar" d="M421,98.57142857142858h18v101.42857142857142h-18Z" fill="rgb(233, 253, 254)"/><path aria-label="País: South Korea; Número de Vitórias: 531; winner: South Korea" role="graphics-symbol" aria-roledescription="bar" d="M101,48.285714285714285h18v151.71428571428572h-18Z" fill="rgb(58, 220, 238)"/><path aria-label="País: Nigeria; Número de Vitórias: 297; winner: Nigeria" role="graphics-symbol" aria-roledescription="bar" d="M741,115.14285714285715h18v84.85714285714285h-18Z" fill="rgb(15, 175, 211)"/><path aria-label="País: Ghana; Número de Vitórias: 305; winner: Ghana" role="graphics-symbol" aria-roledescription="bar" d="M721,112.85714285714286h18v87.14285714285714h-18Z" fill="rgb(9, 108, 166)"/><path aria-label="País: Singapore; Número de Vitórias: 214; winner: Singapore" role="graphics-symbol" aria-roledescription="bar" d="M1301,138.85714285714286h18v61.14285714285714h-18Z" fill="rgb(55, 217, 237)"/><path aria-label="País: Cameroon; Número de Vitórias: 265; winner: Cameroon" role="graphics-symbol" aria-roledescription="bar" d="M961,124.28571428571429h18v75.71428571428571h-18Z" fill="rgb(42, 73, 110)"/><path aria-label="País: Myanmar; Número de Vitórias: 205; winner: Myanmar" role="graphics-symbol" aria-roledescription="bar" d="M1361,141.42857142857142h18v58.571428571428584h-18Z" fill="rgb(7, 169, 207)"/><path aria-label="País: Malaysia; Número de Vitórias: 320; winner: Malaysia" role="graphics-symbol" aria-roledescription="bar" d="M581,108.57142857142858h18v91.42857142857142h-18Z" fill="rgb(3, 155, 199)"/><path aria-label="País: Tunisia; Número de Vitórias: 284; winner: Tunisia" role="graphics-symbol" aria-roledescription="bar" d="M801,118.85714285714286h18v81.14285714285714h-18Z" fill="rgb(77, 239, 248)"/><path aria-label="País: Thailand; Número de Vitórias: 329; winner: Thailand" role="graphics-symbol" aria-roledescription="bar" d="M541,106h18v94h-18Z" fill="rgb(71, 233, 245)"/><path aria-label="País: Morocco; Número de Vitórias: 281; winner: Morocco" role="graphics-symbol" aria-roledescription="bar" d="M861,119.71428571428571h18v80.28571428571429h-18Z" fill="rgb(5, 165, 205)"/><path aria-label="País: Mali; Número de Vitórias: 226; winner: Mali" role="graphics-symbol" aria-roledescription="bar" d="M1241,135.42857142857144h18v64.57142857142856h-18Z" fill="rgb(3, 159, 201)"/><path aria-label="País: Ivory Coast; Número de Vitórias: 313; winner: Ivory Coast" role="graphics-symbol" aria-roledescription="bar" d="M641,110.57142857142858h18v89.42857142857142h-18Z" fill="rgb(0, 135, 188)"/><path aria-label="País: Iraq; Número de Vitórias: 295; winner: Iraq" role="graphics-symbol" aria-roledescription="bar" d="M761,115.71428571428571h18v84.28571428571429h-18Z" fill="rgb(0, 129, 184)"/><path aria-label="País: Senegal; Número de Vitórias: 282; winner: Senegal" role="graphics-symbol" aria-roledescription="bar" d="M841,119.42857142857144h18v80.57142857142856h-18Z" fill="rgb(53, 214, 235)"/><path aria-label="País: Algeria; Número de Vitórias: 269; winner: Algeria" role="graphics-symbol" aria-roledescription="bar" d="M941,123.14285714285714h18v76.85714285714286h-18Z" fill="rgb(49, 53, 57)"/><path aria-label="País: Kuwait; Número de Vitórias: 283; winner: Kuwait" role="graphics-symbol" aria-roledescription="bar" d="M821,119.14285714285712h18v80.85714285714288h-18Z" fill="rgb(2, 148, 196)"/><path aria-label="País: Saudi Arabia; Número de Vitórias: 340; winner: Saudi Arabia" role="graphics-symbol" aria-roledescription="bar" d="M521,102.85714285714285h18v97.14285714285715h-18Z" fill="rgb(48, 207, 230)"/><path aria-label="País: Malawi; Número de Vitórias: 215; winner: Malawi" role="graphics-symbol" aria-roledescription="bar" d="M1281,138.57142857142856h18v61.428571428571445h-18Z" fill="rgb(2, 152, 198)"/><path aria-label="País: Bahrain; Número de Vitórias: 205; winner: Bahrain" role="graphics-symbol" aria-roledescription="bar" d="M1381,141.42857142857142h18v58.571428571428584h-18Z" fill="rgb(47, 63, 84)"/><path aria-label="País: United Arab Emirates; Número de Vitórias: 241; winner: United Arab Emirates" role="graphics-symbol" aria-roledescription="bar" d="M1101,131.14285714285714h18v68.85714285714286h-18Z" fill="rgb(122, 246, 251)"/><path aria-label="País: Qatar; Número de Vitórias: 257; winner: Qatar" role="graphics-symbol" aria-roledescription="bar" d="M1021,126.57142857142856h18v73.42857142857144h-18Z" fill="rgb(39, 194, 222)"/></g></g><path class="foreground" aria-hidden="true" d="" display="none"/></g></g></g></svg>