<svg xmlns="http://www.w3.org/2000/svg" xmlns:xlink="http://www.w3.org/1999/xlink" version="1.1" class="marks" width="613" height="260" viewBox="0 0 613 260"><rect width="613" height="260" fill="white"/><g fill="none" stroke-miterlimit="10" transform="translate(58,10)"><g class="mark-group role-frame root" role="graphics-object" aria-roledescription="group mark container"><g transform="translate(0,0)"><path class="background" aria-hidden="true" d="M0.5,0.5h550v200h-550Z" stroke="#ddd"/><g><g class="mark-group role-axis" aria-hidden="true"><g transform="translate(0.5,0.5)"><path class="background" aria-hidden="true" d="M0,0h0v0h0Z" pointer-events="none"/><g><g class="mark-rule role-axis-grid" pointer-events="none"><line transform="translate(0,200)" x2="550" y2="0" stroke="#ddd" stroke-width="1" opacity="1"/><line transform="translate(0,160)" x2="550" y2="0" stroke="#ddd" stroke-width="1" opacity="1"/><line transform="translate(0,120)" x2="550" y2="0" stroke="#ddd" stroke-width="1" opacity="1"/><line transform="translate(0,80)" x2="550" y2="0" stroke="#ddd" stroke-width="1" opacity="1"/><line transform="translate(0,40)" x2="550" y2="0" stroke="#ddd" stroke-width="1" opacity="1"/><line transform="translate(0,0)" x2="550" y2="0" stroke="#ddd" stroke-width="1" opacity="1"/></g></g><path class="foreground" aria-hidden="true" d="" pointer-events="none" display="none"/></g></g><g class="mark-group role-axis" role="graphics-symbol" aria-roledescription="axis" aria-label="X-axis titled 'Década' for a discrete scale with 16 values: 1870, 1880, 1890, 1900, 1910, ending with 2020"><g transform="translate(0.5,200.5)"><path class="background" aria-hidden="true" d="M0,0h0v0h0Z" pointer-events="none"/><g><g class="mark-rule role-axis-tick" pointer-events="none"><line transform="translate(17,0)" x2="0" y2="5" stroke="#888" stroke-width="1" opacity="1"/><line transform="translate(51,0)" x2="0" y2="5" stroke="#888" stroke-width="1" opacity="1"/><line transform="translate(85,0)" x2="0" y2="5" stroke="#888" stroke-width="1" opacity="1"/><line transform="translate(120,0)" x2="0" y2="5" stroke="#888" stroke-width="1" opacity="1"/><line transform="translate(154,0)" x2="0" y2="5" stroke="#888" stroke-width="1" opacity="1"/><line transform="translate(189,0)" x2="0" y2="5" stroke="#888" stroke-width="1" opacity="1"/><line transform="translate(223,0)" x2="0" y2="5" stroke="#888" stroke-width="1" opacity="1"/><line transform="translate(257,0)" x2="0" y2="5" stroke="#888" stroke-width="1" opacity="1"/><line transform="translate(292,0)" x2="0" y2="5" stroke="#888" stroke-width="1" opacity="1"/><line transform="translate(326,0)" x2="0" y2="5" stroke="#888" stroke-width="1" opacity="1"/><line transform="translate(360,0)" x2="0" y2="5" stroke="#888" stroke-width="1" opacity="1"/><line transform="translate(395,0)" x2="0" y2="5" stroke="#888" stroke-width="1" opacity="1"/><line transform="translate(429,0)" x2="0" y2="5" stroke="#888" stroke-width="1" opacity="1"/><line transform="translate(464,0)" x2="0" y2="5" stroke="#888" stroke-width="1" opacity="1"/><line transform="translate(498,0)" x2="0" y2="5" stroke="#888" stroke-width="1" opacity="1"/><line transform="translate(532,0)" x2="0" y2="5" stroke="#888" stroke-width="1" opacity="1"/></g><g class="mark-text role-axis-label" pointer-events="none"><text text-anchor="end" transform="translate(16.6875,7) rotate(315) translate(0,8)" font-family="sans-serif" font-size="10px" fill="#000" opacity="1">1870</text><text text-anchor="end" transform="translate(51.0625,7) rotate(315) translate(0,8)" font-family="sans-serif" font-size="10px" fill="#000" opacity="1">1880</text><text text-anchor="end" transform="translate(85.4375,7) rotate(315) translate(0,8)" font-family="sans-serif" font-size="10px" fill="#000" opacity="1">1890</text><text text-anchor="end" transform="translate(119.8125,7) rotate(315) translate(0,8)" font-family="sans-serif" font-size="10px" fill="#000" opacity="1">1900</text><text text-anchor="end" transform="translate(154.1875,7) rotate(315) translate(0,8)" font-family="sans-serif" font-size="10px" fill="#000" opacity="1">1910</text><text text-anchor="end" transform="translate(188.5625,7) rotate(315) translate(0,8)" font-family="sans-serif" font-size="10px" fill="#000" opacity="1">1920</text><text text-anchor="end" transform="translate(222.9375,7) rotate(315) translate(0,8)" font-family="sans-serif" font-size="10px" fill="#000" opacity="1">1930</text><text text-anchor="end" transform="translate(257.3125,7) rotate(315) translate(0,8)" font-family="sans-serif" font-size="10px" fill="#000" opacity="1">1940</text><text text-anchor="end" transform="translate(291.6875,7) rotate(315) translate(0,8)" font-family="sans-serif" font-size="10px" fill="#000" opacity="1">1950</text><text text-anchor="end" transform="translate(326.0625,7) rotate(315) translate(0,8)" font-family="sans-serif" font-size="10px" fill="#000" opacity="1">1960</text><text text-anchor="end" transform="translate(360.4375,7) rotate(315) translate(0,8)" font-family="sans-serif" font-size="10px" fill="#000" opacity="1">1970</text><text text-anchor="end" transform="translate(394.8125,7) rotate(315) translate(0,8)" font-family="sans-serif" font-size="10px" fill="#000" opacity="1">1980</text><text text-anchor="end" transform="translate(429.1875,7) rotate(315) translate(0,8)" font-family="sans-serif" font-size="10px" fill="#000" opacity="1">1990</text><text text-anchor="end" transform="translate(463.5625,7) rotate(315) translate(0,8)" font-family="sans-serif" font-size="10px" fill="#000" opacity="1">2000</text><text text-anchor="end" transform="translate(497.9375,7) rotate(315) translate(0,8)" font-family="sans-serif" font-size="10px" fill="#000" opacity="1">2010</text><text text-anchor="end" transform="translate(532.3125,7) rotate(315) translate(0,8)" font-family="sans-serif" font-size="10px" fill="#000" opacity="1">2020</text></g><g class="mark-rule role-axis-domain" pointer-events="none"><line transform="translate(0,0)" x2="550" y2="0" stroke="#888" stroke-width="1" opacity="1"/></g><g class="mark-text role-axis-title" pointer-events="none"><text text-anchor="middle" transform="translate(275,42.80143155740217)" font-family="sans-serif" font-size="11px" font-weight="bold" fill="#000" opacity="1">Década</text></g></g><path class="foreground" aria-hidden="true" d="" pointer-events="none" display="none"/></g></g><g class="mark-group role-axis" role="graphics-symbol" aria-roledescription="axis" aria-label="Y-axis titled 'Número de Partidas' for a linear scale with values from 0 to 10,000"><g transform="translate(0.5,0.5)"><path class="background" aria-hidden="true" d="M0,0h0v0h0Z" pointer-events="none"/><g><g class="mark-rule role-axis-tick" pointer-events="none"><line transform="translate(0,200)" x2="-5" y2="0" stroke="#888" stroke-width="1" opacity="1"/><line transform="translate(0,160)" x2="-5" y2="0" stroke="#888" stroke-width="1" opacity="1"/><line transform="translate(0,120)" x2="-5" y2="0" stroke="#888" stroke-width="1" opacity="1"/><line transform="translate(0,80)" x2="-5" y2="0" stroke="#888" stroke-width="1" opacity="1"/><line transform="translate(0,40)" x2="-5" y2="0" stroke="#888" stroke-width="1" opacity="1"/><line transform="translate(0,0)" x2="-5" y2="0" stroke="#888" stroke-width="1" opacity="1"/></g><g class="mark-text role-axis-label" pointer-events="none"><text text-anchor="end" transform="translate(-7,203)" font-family="sans-serif" font-size="10px" fill="#000" opacity="1">0</text><text text-anchor="end" transform="translate(-7,163)" font-family="sans-serif" font-size="10px" fill="#000" opacity="1">2,000</text><text text-anchor="end" transform="translate(-7,123)" font-family="sans-serif" font-size="10px" fill="#000" opacity="1">4,000</text><text text-anchor="end" transform="translate(-7,83)" font-family="sans-serif" font-size="10px" fill="#000" opacity="1">6,000</text><text text-anchor="end" transform="translate(-7,42.99999999999999)" font-family="sans-serif" font-size="10px" fill="#000" opacity="1">8,000</text><text text-anchor="end" transform="translate(-7,3)" font-family="sans-serif" font-size="10px" fill="#000" opacity="1">10,000</text></g><g class="mark-rule role-axis-domain" pointer-events="none"><line transform="translate(0,200)" x2="0" y2="-200" stroke="#888" stroke-width="1" opacity="1"/></g><g class="mark-text role-axis-title" pointer-events="none"><text text-anchor="middle" transform="translate(-41.5859375,100) rotate(-90) translate(0,-2)" font-family="sans-serif" font-size="11px" font-weight="bold" fill="#000" opacity="1">Número de Partidas</text></g></g><path class="foreground" aria-hidden="true" d="" pointer-events="none" display="none"/></g></g><g class="mark-rect role-mark marks" role="graphics-object" aria-roledescription="rect mark container"><path aria-label="Década: 1870; Número de Partidas: 13; decade: 1870" role="graphics-symbol" aria-roledescription="bar" d="M1.71875,199.74h30.9375v0.2599999999999909h-30.9375Z" fill="rgb(47, 61, 79)"/><path aria-label="Década: 1880; Número de Partidas: 55; decade: 1880" role="graphics-symbol" aria-roledescription="bar" d="M36.09375,198.9h30.9375v1.0999999999999943h-30.9375Z" fill="rgb(44, 71, 107)"/><path aria-label="Década: 1890; Número de Partidas: 59; decade: 1890" role="graphics-symbol" aria-roledescription="bar" d="M70.46875,198.82h30.9375v1.1800000000000068h-30.9375Z" fill="rgb(34, 83, 129)"/><path aria-label="Década: 1900; Número de Partidas: 135; decade: 1900" role="graphics-symbol" aria-roledescription="bar" d="M104.84375,197.3h30.9375v2.6999999999999886h-30.9375Z" fill="rgb(23, 95, 150)"/><path aria-label="Década: 1910; Número de Partidas: 320; decade: 1910" role="graphics-symbol" aria-roledescription="bar" d="M139.21875,193.6h30.9375v6.400000000000006h-30.9375Z" fill="rgb(9, 108, 165)"/><path aria-label="Década: 1920; Número de Partidas: 818; decade: 1920" role="graphics-symbol" aria-roledescription="bar" d="M173.59375,183.64000000000001h30.9375v16.359999999999985h-30.9375Z" fill="rgb(0, 120, 178)"/><path aria-label="Década: 1930; Número de Partidas: 1084; decade: 1930" role="graphics-symbol" aria-roledescription="bar" d="M207.96875,178.32h30.9375v21.680000000000007h-30.9375Z" fill="rgb(0, 133, 186)"/><path aria-label="Década: 1940; Número de Partidas: 833; decade: 1940" role="graphics-symbol" aria-roledescription="bar" d="M242.34375,183.34h30.9375v16.659999999999997h-30.9375Z" fill="rgb(1, 146, 195)"/><path aria-label="Década: 1950; Número de Partidas: 1652; decade: 1950" role="graphics-symbol" aria-roledescription="bar" d="M276.71875,166.96h30.9375v33.03999999999999h-30.9375Z" fill="rgb(4, 161, 202)"/><path aria-label="Década: 1960; Número de Partidas: 2979; decade: 1960" role="graphics-symbol" aria-roledescription="bar" d="M311.09375,140.42h30.9375v59.58000000000001h-30.9375Z" fill="rgb(14, 174, 210)"/><path aria-label="Década: 1970; Número de Partidas: 4132; decade: 1970" role="graphics-symbol" aria-roledescription="bar" d="M345.46875,117.36h30.9375v82.64h-30.9375Z" fill="rgb(31, 188, 218)"/><path aria-label="Década: 1980; Número de Partidas: 5024; decade: 1980" role="graphics-symbol" aria-roledescription="bar" d="M379.84375,99.52000000000001h30.9375v100.47999999999999h-30.9375Z" fill="rgb(44, 201, 227)"/><path aria-label="Década: 1990; Número de Partidas: 6947; decade: 1990" role="graphics-symbol" aria-roledescription="bar" d="M414.21875,61.06h30.9375v138.94h-30.9375Z" fill="rgb(54, 215, 235)"/><path aria-label="Década: 2000; Número de Partidas: 9525; decade: 2000" role="graphics-symbol" aria-roledescription="bar" d="M448.59375,9.499999999999996h30.9375v190.5h-30.9375Z" fill="rgb(66, 228, 242)"/><path aria-label="Década: 2010; Número de Partidas: 9752; decade: 2010" role="graphics-symbol" aria-roledescription="bar" d="M482.96875,4.960000000000009h30.9375v195.04h-30.9375Z" fill="rgb(79, 242, 249)"/><path aria-label="Década: 2020; Número de Partidas: 4652; decade: 2020" role="graphics-symbol" aria-roledescription="bar" d="M517.34375,106.96h30.9375v93.04h-30.9375Z" fill="rgb(162, 249, 252)"/></g></g><path class="foreground" aria-hidden="true" d="" display="none"/></g></g></g></svg>