<svg xmlns="http://www.w3.org/2000/svg" xmlns:xlink="http://www.w3.org/1999/xlink" version="1.1" class="marks" width="641" height="484" viewBox="0 0 641 484"><rect width="641" height="484" fill="white"/><g fill="none" stroke-miterlimit="10" transform="translate(39,5)"><g class="mark-group role-frame root" role="graphics-object" aria-roledescription="group mark container"><g transform="translate(0,0)"><path class="background" aria-hidden="true" d="M0.5,0.5h520v440h-520Z" stroke="#ddd"/><g><g class="mark-rect role-mark marks" role="graphics-object" aria-roledescription="rect mark container"><path aria-label="Gols do Time da Casa: 0; Gols do Time Visitante: 0; Frequência: 3850" role="graphics-symbol" aria-roledescription="rect mark" d="M0,0h20v20h-20Z" fill="rgb(255, 120, 28)"/><path aria-label="Gols do Time da Casa: 4; Gols do Time Visitante: 2; Frequência: 441" role="graphics-symbol" aria-roledescription="rect mark" d="M80,40h20v20h-20Z" fill="rgb(74, 79, 208)"/><path aria-label="Gols do Time da Casa: 2; Gols do Time Visitante: 1; Frequência: 3677" role="graphics-symbol" aria-roledescription="rect mark" d="M40,20h20v20h-20Z" fill="rgb(255, 144, 32)"/><path aria-label="Gols do Time da Casa: 2; Gols do Time Visitante: 2; Frequência: 1884" role="graphics-symbol" aria-roledescription="rect mark" d="M40,40h20v20h-20Z" fill="rgb(63, 243, 148)"/><path aria-label="Gols do Time da Casa: 3; Gols do Time Visitante: 0; Frequência: 2281" role="graphics-symbol" aria-roledescription="rect mark" d="M60,0h20v20h-20Z" fill="rgb(112, 254, 102)"/><path aria-label="Gols do Time da Casa: 4; Gols do Time Visitante: 0; Frequência: 1313" role="graphics-symbol" aria-roledescription="rect mark" d="M80,0h20v20h-20Z" fill="rgb(37, 194, 220)"/><path aria-label="Gols do Time da Casa: 1; Gols do Time Visitante: 3; Frequência: 1067" role="graphics-symbol" aria-roledescription="rect mark" d="M20,60h20v20h-20Z" fill="rgb(44, 165, 241)"/><path aria-label="Gols do Time da Casa: 0; Gols do Time Visitante: 2; Frequência: 2160" role="graphics-symbol" aria-roledescription="rect mark" d="M0,40h20v20h-20Z" fill="rgb(95, 252, 115)"/><path aria-label="Gols do Time da Casa: 7; Gols do Time Visitante: 2; Frequência: 40" role="graphics-symbol" aria-roledescription="rect mark" d="M140,40h20v20h-20Z" fill="rgb(42, 27, 50)"/><path aria-label="Gols do Time da Casa: 9; Gols do Time Visitante: 0; Frequência: 87" role="graphics-symbol" aria-roledescription="rect mark" d="M180,0h20v20h-20Z" fill="rgb(51, 33, 78)"/><path aria-label="Gols do Time da Casa: 5; Gols do Time Visitante: 4; Frequência: 34" role="graphics-symbol" aria-roledescription="rect mark" d="M100,80h20v20h-20Z" fill="rgb(41, 27, 47)"/><path aria-label="Gols do Time da Casa: 0; Gols do Time Visitante: 3; Frequência: 1044" role="graphics-symbol" aria-roledescription="rect mark" d="M0,60h20v20h-20Z" fill="rgb(45, 162, 243)"/><path aria-label="Gols do Time da Casa: 2; Gols do Time Visitante: 3; Frequência: 789" role="graphics-symbol" aria-roledescription="rect mark" d="M40,60h20v20h-20Z" fill="rgb(60, 127, 248)"/><path aria-label="Gols do Time da Casa: 5; Gols do Time Visitante: 1; Frequência: 421" role="graphics-symbol" aria-roledescription="rect mark" d="M100,20h20v20h-20Z" fill="rgb(75, 76, 203)"/><path aria-label="Gols do Time da Casa: 0; Gols do Time Visitante: 1; Frequência: 3346" role="graphics-symbol" aria-roledescription="rect mark" d="M0,20h20v20h-20Z" fill="rgb(253, 187, 39)"/><path aria-label="Gols do Time da Casa: 1; Gols do Time Visitante: 6; Frequência: 94" role="graphics-symbol" aria-roledescription="rect mark" d="M20,120h20v20h-20Z" fill="rgb(52, 34, 81)"/><path aria-label="Gols do Time da Casa: 1; Gols do Time Visitante: 5; Frequência: 207" role="graphics-symbol" aria-roledescription="rect mark" d="M20,100h20v20h-20Z" fill="rgb(66, 48, 134)"/><path aria-label="Gols do Time da Casa: 0; Gols do Time Visitante: 13; Frequência: 6" role="graphics-symbol" aria-roledescription="rect mark" d="M0,260h20v20h-20Z" fill="rgb(36, 24, 30)"/><path aria-label="Gols do Time da Casa: 7; Gols do Time Visitante: 1; Frequência: 110" role="graphics-symbol" aria-roledescription="rect mark" d="M140,20h20v20h-20Z" fill="rgb(55, 36, 89)"/><path aria-label="Gols do Time da Casa: 5; Gols do Time Visitante: 3; Frequência: 70" role="graphics-symbol" aria-roledescription="rect mark" d="M100,60h20v20h-20Z" fill="rgb(48, 31, 68)"/><path aria-label="Gols do Time da Casa: 5; Gols do Time Visitante: 0; Frequência: 720" role="graphics-symbol" aria-roledescription="rect mark" d="M100,0h20v20h-20Z" fill="rgb(63, 118, 245)"/><path aria-label="Gols do Time da Casa: 7; Gols do Time Visitante: 0; Frequência: 255" role="graphics-symbol" aria-roledescription="rect mark" d="M140,0h20v20h-20Z" fill="rgb(70, 54, 153)"/><path aria-label="Gols do Time da Casa: 1; Gols do Time Visitante: 1; Frequência: 4772" role="graphics-symbol" aria-roledescription="rect mark" d="M20,20h20v20h-20Z" fill="rgb(158, 16, 1)"/><path aria-label="Gols do Time da Casa: 0; Gols do Time Visitante: 5; Frequência: 239" role="graphics-symbol" aria-roledescription="rect mark" d="M0,100h20v20h-20Z" fill="rgb(69, 52, 148)"/><path aria-label="Gols do Time da Casa: 6; Gols do Time Visitante: 0; Frequência: 406" role="graphics-symbol" aria-roledescription="rect mark" d="M120,0h20v20h-20Z" fill="rgb(75, 74, 200)"/><path aria-label="Gols do Time da Casa: 1; Gols do Time Visitante: 8; Frequência: 27" role="graphics-symbol" aria-roledescription="rect mark" d="M20,160h20v20h-20Z" fill="rgb(40, 26, 43)"/><path aria-label="Gols do Time da Casa: 1; Gols do Time Visitante: 0; Frequência: 4957" role="graphics-symbol" aria-roledescription="rect mark" d="M20,0h20v20h-20Z" fill="rgb(145, 11, 0)"/><path aria-label="Gols do Time da Casa: 0; Gols do Time Visitante: 4; Frequência: 538" role="graphics-symbol" aria-roledescription="rect mark" d="M0,80h20v20h-20Z" fill="rgb(72, 92, 226)"/><path aria-label="Gols do Time da Casa: 4; Gols do Time Visitante: 1; Frequência: 949" role="graphics-symbol" aria-roledescription="rect mark" d="M80,20h20v20h-20Z" fill="rgb(50, 150, 247)"/><path aria-label="Gols do Time da Casa: 8; Gols do Time Visitante: 2; Frequência: 20" role="graphics-symbol" aria-roledescription="rect mark" d="M160,40h20v20h-20Z" fill="rgb(39, 25, 38)"/><path aria-label="Gols do Time da Casa: 2; Gols do Time Visitante: 8; Frequência: 11" role="graphics-symbol" aria-roledescription="rect mark" d="M40,160h20v20h-20Z" fill="rgb(37, 24, 33)"/><path aria-label="Gols do Time da Casa: 2; Gols do Time Visitante: 7; Frequência: 16" role="graphics-symbol" aria-roledescription="rect mark" d="M40,140h20v20h-20Z" fill="rgb(38, 25, 36)"/><path aria-label="Gols do Time da Casa: 3; Gols do Time Visitante: 2; Frequência: 975" role="graphics-symbol" aria-roledescription="rect mark" d="M60,40h20v20h-20Z" fill="rgb(48, 153, 246)"/><path aria-label="Gols do Time da Casa: 11; Gols do Time Visitante: 0; Frequência: 34" role="graphics-symbol" aria-roledescription="rect mark" d="M220,0h20v20h-20Z" fill="rgb(41, 27, 47)"/><path aria-label="Gols do Time da Casa: 2; Gols do Time Visitante: 10; Frequência: 2" role="graphics-symbol" aria-roledescription="rect mark" d="M40,200h20v20h-20Z" fill="rgb(35, 23, 28)"/><path aria-label="Gols do Time da Casa: 6; Gols do Time Visitante: 1; Frequência: 239" role="graphics-symbol" aria-roledescription="rect mark" d="M120,20h20v20h-20Z" fill="rgb(69, 52, 148)"/><path aria-label="Gols do Time da Casa: 5; Gols do Time Visitante: 2; Frequência: 185" role="graphics-symbol" aria-roledescription="rect mark" d="M100,40h20v20h-20Z" fill="rgb(64, 45, 125)"/><path aria-label="Gols do Time da Casa: 1; Gols do Time Visitante: 9; Frequência: 14" role="graphics-symbol" aria-roledescription="rect mark" d="M20,180h20v20h-20Z" fill="rgb(37, 24, 35)"/><path aria-label="Gols do Time da Casa: 1; Gols do Time Visitante: 4; Frequência: 465" role="graphics-symbol" aria-roledescription="rect mark" d="M20,80h20v20h-20Z" fill="rgb(74, 82, 213)"/><path aria-label="Gols do Time da Casa: 3; Gols do Time Visitante: 4; Frequência: 116" role="graphics-symbol" aria-roledescription="rect mark" d="M60,80h20v20h-20Z" fill="rgb(56, 37, 92)"/><path aria-label="Gols do Time da Casa: 0; Gols do Time Visitante: 8; Frequência: 35" role="graphics-symbol" aria-roledescription="rect mark" d="M0,160h20v20h-20Z" fill="rgb(41, 27, 47)"/><path aria-label="Gols do Time da Casa: 1; Gols do Time Visitante: 2; Frequência: 2485" role="graphics-symbol" aria-roledescription="rect mark" d="M20,40h20v20h-20Z" fill="rgb(143, 251, 84)"/><path aria-label="Gols do Time da Casa: 3; Gols do Time Visitante: 1; Frequência: 1841" role="graphics-symbol" aria-roledescription="rect mark" d="M60,20h20v20h-20Z" fill="rgb(59, 240, 153)"/><path aria-label="Gols do Time da Casa: 3; Gols do Time Visitante: 3; Frequência: 351" role="graphics-symbol" aria-roledescription="rect mark" d="M60,60h20v20h-20Z" fill="rgb(74, 67, 184)"/><path aria-label="Gols do Time da Casa: 4; Gols do Time Visitante: 3; Frequência: 154" role="graphics-symbol" aria-roledescription="rect mark" d="M80,60h20v20h-20Z" fill="rgb(61, 41, 111)"/><path aria-label="Gols do Time da Casa: 13; Gols do Time Visitante: 2; Frequência: 1" role="graphics-symbol" aria-roledescription="rect mark" d="M260,40h20v20h-20Z" fill="rgb(35, 23, 27)"/><path aria-label="Gols do Time da Casa: 0; Gols do Time Visitante: 6; Frequência: 157" role="graphics-symbol" aria-roledescription="rect mark" d="M0,120h20v20h-20Z" fill="rgb(62, 42, 112)"/><path aria-label="Gols do Time da Casa: 9; Gols do Time Visitante: 1; Frequência: 32" role="graphics-symbol" aria-roledescription="rect mark" d="M180,20h20v20h-20Z" fill="rgb(41, 27, 46)"/><path aria-label="Gols do Time da Casa: 2; Gols do Time Visitante: 0; Frequência: 3712" role="graphics-symbol" aria-roledescription="rect mark" d="M40,0h20v20h-20Z" fill="rgb(255, 139, 31)"/><path aria-label="Gols do Time da Casa: 4; Gols do Time Visitante: 4; Frequência: 54" role="graphics-symbol" aria-roledescription="rect mark" d="M80,80h20v20h-20Z" fill="rgb(45, 29, 59)"/><path aria-label="Gols do Time da Casa: 1; Gols do Time Visitante: 7; Frequência: 50" role="graphics-symbol" aria-roledescription="rect mark" d="M20,140h20v20h-20Z" fill="rgb(44, 29, 56)"/><path aria-label="Gols do Time da Casa: 1; Gols do Time Visitante: 11; Frequência: 3" role="graphics-symbol" aria-roledescription="rect mark" d="M20,220h20v20h-20Z" fill="rgb(35, 23, 28)"/><path aria-label="Gols do Time da Casa: 0; Gols do Time Visitante: 7; Frequência: 81" role="graphics-symbol" aria-roledescription="rect mark" d="M0,140h20v20h-20Z" fill="rgb(50, 32, 75)"/><path aria-label="Gols do Time da Casa: 11; Gols do Time Visitante: 3; Frequência: 3" role="graphics-symbol" aria-roledescription="rect mark" d="M220,60h20v20h-20Z" fill="rgb(35, 23, 28)"/><path aria-label="Gols do Time da Casa: 2; Gols do Time Visitante: 4; Frequência: 263" role="graphics-symbol" aria-roledescription="rect mark" d="M40,80h20v20h-20Z" fill="rgb(70, 55, 156)"/><path aria-label="Gols do Time da Casa: 6; Gols do Time Visitante: 2; Frequência: 85" role="graphics-symbol" aria-roledescription="rect mark" d="M120,40h20v20h-20Z" fill="rgb(51, 33, 77)"/><path aria-label="Gols do Time da Casa: 2; Gols do Time Visitante: 6; Frequência: 44" role="graphics-symbol" aria-roledescription="rect mark" d="M40,120h20v20h-20Z" fill="rgb(43, 28, 53)"/><path aria-label="Gols do Time da Casa: 2; Gols do Time Visitante: 5; Frequência: 100" role="graphics-symbol" aria-roledescription="rect mark" d="M40,100h20v20h-20Z" fill="rgb(53, 35, 84)"/><path aria-label="Gols do Time da Casa: 9; Gols do Time Visitante: 2; Frequência: 16" role="graphics-symbol" aria-roledescription="rect mark" d="M180,40h20v20h-20Z" fill="rgb(38, 25, 36)"/><path aria-label="Gols do Time da Casa: 5; Gols do Time Visitante: 5; Frequência: 5" role="graphics-symbol" aria-roledescription="rect mark" d="M100,100h20v20h-20Z" fill="rgb(36, 23, 29)"/><path aria-label="Gols do Time da Casa: 0; Gols do Time Visitante: 9; Frequência: 20" role="graphics-symbol" aria-roledescription="rect mark" d="M0,180h20v20h-20Z" fill="rgb(39, 25, 38)"/><path aria-label="Gols do Time da Casa: 0; Gols do Time Visitante: 12; Frequência: 7" role="graphics-symbol" aria-roledescription="rect mark" d="M0,240h20v20h-20Z" fill="rgb(36, 24, 31)"/><path aria-label="Gols do Time da Casa: 8; Gols do Time Visitante: 0; Frequência: 144" role="graphics-symbol" aria-roledescription="rect mark" d="M160,0h20v20h-20Z" fill="rgb(60, 40, 106)"/><path aria-label="Gols do Time da Casa: 0; Gols do Time Visitante: 10; Frequência: 21" role="graphics-symbol" aria-roledescription="rect mark" d="M0,200h20v20h-20Z" fill="rgb(39, 25, 39)"/><path aria-label="Gols do Time da Casa: 8; Gols do Time Visitante: 1; Frequência: 57" role="graphics-symbol" aria-roledescription="rect mark" d="M160,20h20v20h-20Z" fill="rgb(46, 29, 60)"/><path aria-label="Gols do Time da Casa: 2; Gols do Time Visitante: 15; Frequência: 3" role="graphics-symbol" aria-roledescription="rect mark" d="M40,300h20v20h-20Z" fill="rgb(35, 23, 28)"/><path aria-label="Gols do Time da Casa: 12; Gols do Time Visitante: 0; Frequência: 25" role="graphics-symbol" aria-roledescription="rect mark" d="M240,0h20v20h-20Z" fill="rgb(40, 26, 41)"/><path aria-label="Gols do Time da Casa: 9; Gols do Time Visitante: 4; Frequência: 2" role="graphics-symbol" aria-roledescription="rect mark" d="M180,80h20v20h-20Z" fill="rgb(35, 23, 28)"/><path aria-label="Gols do Time da Casa: 10; Gols do Time Visitante: 2; Frequência: 5" role="graphics-symbol" aria-roledescription="rect mark" d="M200,40h20v20h-20Z" fill="rgb(36, 23, 29)"/><path aria-label="Gols do Time da Casa: 10; Gols do Time Visitante: 0; Frequência: 52" role="graphics-symbol" aria-roledescription="rect mark" d="M200,0h20v20h-20Z" fill="rgb(45, 29, 57)"/><path aria-label="Gols do Time da Casa: 5; Gols do Time Visitante: 7; Frequência: 2" role="graphics-symbol" aria-roledescription="rect mark" d="M100,140h20v20h-20Z" fill="rgb(35, 23, 28)"/><path aria-label="Gols do Time da Casa: 3; Gols do Time Visitante: 5; Frequência: 40" role="graphics-symbol" aria-roledescription="rect mark" d="M60,100h20v20h-20Z" fill="rgb(42, 27, 50)"/><path aria-label="Gols do Time da Casa: 3; Gols do Time Visitante: 7; Frequência: 6" role="graphics-symbol" aria-roledescription="rect mark" d="M60,140h20v20h-20Z" fill="rgb(36, 24, 30)"/><path aria-label="Gols do Time da Casa: 13; Gols do Time Visitante: 1; Frequência: 5" role="graphics-symbol" aria-roledescription="rect mark" d="M260,20h20v20h-20Z" fill="rgb(36, 23, 29)"/><path aria-label="Gols do Time da Casa: 6; Gols do Time Visitante: 3; Frequência: 31" role="graphics-symbol" aria-roledescription="rect mark" d="M120,60h20v20h-20Z" fill="rgb(41, 26, 45)"/><path aria-label="Gols do Time da Casa: 11; Gols do Time Visitante: 2; Frequência: 5" role="graphics-symbol" aria-roledescription="rect mark" d="M220,40h20v20h-20Z" fill="rgb(36, 23, 29)"/><path aria-label="Gols do Time da Casa: 4; Gols do Time Visitante: 5; Frequência: 23" role="graphics-symbol" aria-roledescription="rect mark" d="M80,100h20v20h-20Z" fill="rgb(39, 26, 40)"/><path aria-label="Gols do Time da Casa: 7; Gols do Time Visitante: 3; Frequência: 9" role="graphics-symbol" aria-roledescription="rect mark" d="M140,60h20v20h-20Z" fill="rgb(37, 24, 32)"/><path aria-label="Gols do Time da Casa: 13; Gols do Time Visitante: 0; Frequência: 13" role="graphics-symbol" aria-roledescription="rect mark" d="M260,0h20v20h-20Z" fill="rgb(37, 24, 34)"/><path aria-label="Gols do Time da Casa: 6; Gols do Time Visitante: 4; Frequência: 8" role="graphics-symbol" aria-roledescription="rect mark" d="M120,80h20v20h-20Z" fill="rgb(36, 24, 31)"/><path aria-label="Gols do Time da Casa: 8; Gols do Time Visitante: 4; Frequência: 3" role="graphics-symbol" aria-roledescription="rect mark" d="M160,80h20v20h-20Z" fill="rgb(35, 23, 28)"/><path aria-label="Gols do Time da Casa: 9; Gols do Time Visitante: 3; Frequência: 6" role="graphics-symbol" aria-roledescription="rect mark" d="M180,60h20v20h-20Z" fill="rgb(36, 24, 30)"/><path aria-label="Gols do Time da Casa: 9; Gols do Time Visitante: 5; Frequência: 1" role="graphics-symbol" aria-roledescription="rect mark" d="M180,100h20v20h-20Z" fill="rgb(35, 23, 27)"/><path aria-label="Gols do Time da Casa: 8; Gols do Time Visitante: 3; Frequência: 8" role="graphics-symbol" aria-roledescription="rect mark" d="M160,60h20v20h-20Z" fill="rgb(36, 24, 31)"/><path aria-label="Gols do Time da Casa: 0; Gols do Time Visitante: 11; Frequência: 6" role="graphics-symbol" aria-roledescription="rect mark" d="M0,220h20v20h-20Z" fill="rgb(36, 24, 30)"/><path aria-label="Gols do Time da Casa: 11; Gols do Time Visitante: 1; Frequência: 5" role="graphics-symbol" aria-roledescription="rect mark" d="M220,20h20v20h-20Z" fill="rgb(36, 23, 29)"/><path aria-label="Gols do Time da Casa: 3; Gols do Time Visitante: 6; Frequência: 13" role="graphics-symbol" aria-roledescription="rect mark" d="M60,120h20v20h-20Z" fill="rgb(37, 24, 34)"/><path aria-label="Gols do Time da Casa: 6; Gols do Time Visitante: 5; Frequência: 4" role="graphics-symbol" aria-roledescription="rect mark" d="M120,100h20v20h-20Z" fill="rgb(36, 23, 29)"/><path aria-label="Gols do Time da Casa: 10; Gols do Time Visitante: 1; Frequência: 14" role="graphics-symbol" aria-roledescription="rect mark" d="M200,20h20v20h-20Z" fill="rgb(37, 24, 35)"/><path aria-label="Gols do Time da Casa: 12; Gols do Time Visitante: 1; Frequência: 7" role="graphics-symbol" aria-roledescription="rect mark" d="M240,20h20v20h-20Z" fill="rgb(36, 24, 31)"/><path aria-label="Gols do Time da Casa: 14; Gols do Time Visitante: 0; Frequência: 10" role="graphics-symbol" aria-roledescription="rect mark" d="M280,0h20v20h-20Z" fill="rgb(37, 24, 32)"/><path aria-label="Gols do Time da Casa: 5; Gols do Time Visitante: 6; Frequência: 1" role="graphics-symbol" aria-roledescription="rect mark" d="M100,120h20v20h-20Z" fill="rgb(35, 23, 27)"/><path aria-label="Gols do Time da Casa: 3; Gols do Time Visitante: 8; Frequência: 3" role="graphics-symbol" aria-roledescription="rect mark" d="M60,160h20v20h-20Z" fill="rgb(35, 23, 28)"/><path aria-label="Gols do Time da Casa: 7; Gols do Time Visitante: 4; Frequência: 3" role="graphics-symbol" aria-roledescription="rect mark" d="M140,80h20v20h-20Z" fill="rgb(35, 23, 28)"/><path aria-label="Gols do Time da Casa: 15; Gols do Time Visitante: 2; Frequência: 1" role="graphics-symbol" aria-roledescription="rect mark" d="M300,40h20v20h-20Z" fill="rgb(35, 23, 27)"/><path aria-label="Gols do Time da Casa: 7; Gols do Time Visitante: 5; Frequência: 3" role="graphics-symbol" aria-roledescription="rect mark" d="M140,100h20v20h-20Z" fill="rgb(35, 23, 28)"/><path aria-label="Gols do Time da Casa: 4; Gols do Time Visitante: 6; Frequência: 5" role="graphics-symbol" aria-roledescription="rect mark" d="M80,120h20v20h-20Z" fill="rgb(36, 23, 29)"/><path aria-label="Gols do Time da Casa: 6; Gols do Time Visitante: 7; Frequência: 1" role="graphics-symbol" aria-roledescription="rect mark" d="M120,140h20v20h-20Z" fill="rgb(35, 23, 27)"/><path aria-label="Gols do Time da Casa: 1; Gols do Time Visitante: 10; Frequência: 5" role="graphics-symbol" aria-roledescription="rect mark" d="M20,200h20v20h-20Z" fill="rgb(36, 23, 29)"/><path aria-label="Gols do Time da Casa: 4; Gols do Time Visitante: 7; Frequência: 2" role="graphics-symbol" aria-roledescription="rect mark" d="M80,140h20v20h-20Z" fill="rgb(35, 23, 28)"/><path aria-label="Gols do Time da Casa: 15; Gols do Time Visitante: 1; Frequência: 3" role="graphics-symbol" aria-roledescription="rect mark" d="M300,20h20v20h-20Z" fill="rgb(35, 23, 28)"/><path aria-label="Gols do Time da Casa: 0; Gols do Time Visitante: 18; Frequência: 5" role="graphics-symbol" aria-roledescription="rect mark" d="M0,360h20v20h-20Z" fill="rgb(36, 23, 29)"/><path aria-label="Gols do Time da Casa: 15; Gols do Time Visitante: 0; Frequência: 5" role="graphics-symbol" aria-roledescription="rect mark" d="M300,0h20v20h-20Z" fill="rgb(36, 23, 29)"/><path aria-label="Gols do Time da Casa: 1; Gols do Time Visitante: 12; Frequência: 2" role="graphics-symbol" aria-roledescription="rect mark" d="M20,240h20v20h-20Z" fill="rgb(35, 23, 28)"/><path aria-label="Gols do Time da Casa: 3; Gols do Time Visitante: 9; Frequência: 1" role="graphics-symbol" aria-roledescription="rect mark" d="M60,180h20v20h-20Z" fill="rgb(35, 23, 27)"/><path aria-label="Gols do Time da Casa: 2; Gols do Time Visitante: 13; Frequência: 1" role="graphics-symbol" aria-roledescription="rect mark" d="M40,260h20v20h-20Z" fill="rgb(35, 23, 27)"/><path aria-label="Gols do Time da Casa: 21; Gols do Time Visitante: 0; Frequência: 1" role="graphics-symbol" aria-roledescription="rect mark" d="M420,0h20v20h-20Z" fill="rgb(35, 23, 27)"/><path aria-label="Gols do Time da Casa: 10; Gols do Time Visitante: 4; Frequência: 1" role="graphics-symbol" aria-roledescription="rect mark" d="M200,80h20v20h-20Z" fill="rgb(35, 23, 27)"/><path aria-label="Gols do Time da Casa: 14; Gols do Time Visitante: 2; Frequência: 1" role="graphics-symbol" aria-roledescription="rect mark" d="M280,40h20v20h-20Z" fill="rgb(35, 23, 27)"/><path aria-label="Gols do Time da Casa: 1; Gols do Time Visitante: 16; Frequência: 2" role="graphics-symbol" aria-roledescription="rect mark" d="M20,320h20v20h-20Z" fill="rgb(35, 23, 28)"/><path aria-label="Gols do Time da Casa: 30; Gols do Time Visitante: 0; Frequência: 1" role="graphics-symbol" aria-roledescription="rect mark" d="M480,0h20v20h-20Z" fill="rgb(35, 23, 27)"/><path aria-label="Gols do Time da Casa: 1; Gols do Time Visitante: 15; Frequência: 1" role="graphics-symbol" aria-roledescription="rect mark" d="M20,300h20v20h-20Z" fill="rgb(35, 23, 27)"/><path aria-label="Gols do Time da Casa: 24; Gols do Time Visitante: 0; Frequência: 1" role="graphics-symbol" aria-roledescription="rect mark" d="M460,0h20v20h-20Z" fill="rgb(35, 23, 27)"/><path aria-label="Gols do Time da Casa: 18; Gols do Time Visitante: 0; Frequência: 2" role="graphics-symbol" aria-roledescription="rect mark" d="M360,0h20v20h-20Z" fill="rgb(35, 23, 28)"/><path aria-label="Gols do Time da Casa: 0; Gols do Time Visitante: 14; Frequência: 2" role="graphics-symbol" aria-roledescription="rect mark" d="M0,280h20v20h-20Z" fill="rgb(35, 23, 28)"/><path aria-label="Gols do Time da Casa: 0; Gols do Time Visitante: 19; Frequência: 2" role="graphics-symbol" aria-roledescription="rect mark" d="M0,380h20v20h-20Z" fill="rgb(35, 23, 28)"/><path aria-label="Gols do Time da Casa: 0; Gols do Time Visitante: 20; Frequência: 3" role="graphics-symbol" aria-roledescription="rect mark" d="M0,400h20v20h-20Z" fill="rgb(35, 23, 28)"/><path aria-label="Gols do Time da Casa: 0; Gols do Time Visitante: 15; Frequência: 4" role="graphics-symbol" aria-roledescription="rect mark" d="M0,300h20v20h-20Z" fill="rgb(36, 23, 29)"/><path aria-label="Gols do Time da Casa: 14; Gols do Time Visitante: 1; Frequência: 3" role="graphics-symbol" aria-roledescription="rect mark" d="M280,20h20v20h-20Z" fill="rgb(35, 23, 28)"/><path aria-label="Gols do Time da Casa: 2; Gols do Time Visitante: 9; Frequência: 3" role="graphics-symbol" aria-roledescription="rect mark" d="M40,180h20v20h-20Z" fill="rgb(35, 23, 28)"/><path aria-label="Gols do Time da Casa: 0; Gols do Time Visitante: 16; Frequência: 1" role="graphics-symbol" aria-roledescription="rect mark" d="M0,320h20v20h-20Z" fill="rgb(35, 23, 27)"/><path aria-label="Gols do Time da Casa: 20; Gols do Time Visitante: 1; Frequência: 1" role="graphics-symbol" aria-roledescription="rect mark" d="M400,20h20v20h-20Z" fill="rgb(35, 23, 27)"/><path aria-label="Gols do Time da Casa: 3; Gols do Time Visitante: 11; Frequência: 1" role="graphics-symbol" aria-roledescription="rect mark" d="M60,220h20v20h-20Z" fill="rgb(35, 23, 27)"/><path aria-label="Gols do Time da Casa: 0; Gols do Time Visitante: 17; Frequência: 1" role="graphics-symbol" aria-roledescription="rect mark" d="M0,340h20v20h-20Z" fill="rgb(35, 23, 27)"/><path aria-label="Gols do Time da Casa: 16; Gols do Time Visitante: 0; Frequência: 6" role="graphics-symbol" aria-roledescription="rect mark" d="M320,0h20v20h-20Z" fill="rgb(36, 24, 30)"/><path aria-label="Gols do Time da Casa: 19; Gols do Time Visitante: 0; Frequência: 3" role="graphics-symbol" aria-roledescription="rect mark" d="M380,0h20v20h-20Z" fill="rgb(35, 23, 28)"/><path aria-label="Gols do Time da Casa: 20; Gols do Time Visitante: 0; Frequência: 1" role="graphics-symbol" aria-roledescription="rect mark" d="M400,0h20v20h-20Z" fill="rgb(35, 23, 27)"/><path aria-label="Gols do Time da Casa: 17; Gols do Time Visitante: 0; Frequência: 3" role="graphics-symbol" aria-roledescription="rect mark" d="M340,0h20v20h-20Z" fill="rgb(35, 23, 28)"/><path aria-label="Gols do Time da Casa: 22; Gols do Time Visitante: 0; Frequência: 1" role="graphics-symbol" aria-roledescription="rect mark" d="M440,0h20v20h-20Z" fill="rgb(35, 23, 27)"/><path aria-label="Gols do Time da Casa: 31; Gols do Time Visitante: 0; Frequência: 1" role="graphics-symbol" aria-roledescription="rect mark" d="M500,0h20v20h-20Z" fill="rgb(35, 23, 27)"/><path aria-label="Gols do Time da Casa: 0; Gols do Time Visitante: 21; Frequência: 1" role="graphics-symbol" aria-roledescription="rect mark" d="M0,420h20v20h-20Z" fill="rgb(35, 23, 27)"/><path aria-label="Gols do Time da Casa: 21; Gols do Time Visitante: 1; Frequência: 1" role="graphics-symbol" aria-roledescription="rect mark" d="M420,20h20v20h-20Z" fill="rgb(35, 23, 27)"/><path aria-label="Gols do Time da Casa: 1; Gols do Time Visitante: 17; Frequência: 2" role="graphics-symbol" aria-roledescription="rect mark" d="M20,340h20v20h-20Z" fill="rgb(35, 23, 28)"/><path aria-label="Gols do Time da Casa: 17; Gols do Time Visitante: 1; Frequência: 1" role="graphics-symbol" aria-roledescription="rect mark" d="M340,20h20v20h-20Z" fill="rgb(35, 23, 27)"/></g><g class="mark-group role-legend" role="graphics-symbol" aria-roledescription="legend" aria-label="Gradient legend titled 'Frequência' for fill color with values from 1 to 4,957"><g transform="translate(538,0)"><path class="background" aria-hidden="true" d="M0,0h59v216h-59Z" pointer-events="none"/><g><g class="mark-group role-legend-entry"><g transform="translate(0,16)"><path class="background" aria-hidden="true" d="M0,0h0v0h0Z" pointer-events="none"/><g><g class="mark-rect role-legend-gradient" pointer-events="none"><path d="M0,0h16v200h-16Z" fill="url(#gradient_0)" stroke="#ddd" stroke-width="0" opacity="1"/></g><g class="mark-text role-legend-label" pointer-events="none"><text text-anchor="start" transform="translate(18,162.6852300242131)" font-family="sans-serif" font-size="10px" fill="#000" opacity="1">1,000</text><text text-anchor="start" transform="translate(18,122.33010492332525)" font-family="sans-serif" font-size="10px" fill="#000" opacity="1">2,000</text><text text-anchor="start" transform="translate(18,81.97497982243745)" font-family="sans-serif" font-size="10px" fill="#000" opacity="1">3,000</text><text text-anchor="start" transform="translate(18,41.61985472154963)" font-family="sans-serif" font-size="10px" fill="#000" opacity="1">4,000</text></g></g><path class="foreground" aria-hidden="true" d="" pointer-events="none" display="none"/></g></g><g class="mark-text role-legend-title" pointer-events="none"><text text-anchor="start" transform="translate(0,9)" font-family="sans-serif" font-size="11px" font-weight="bold" fill="#000" opacity="1">Frequência</text></g></g><path class="foreground" aria-hidden="true" d="" pointer-events="none" display="none"/></g></g><g class="mark-group role-axis" role="graphics-symbol" aria-roledescription="axis" aria-label="X-axis titled 'Gols do Time da Casa' for a discrete scale with 26 values: 0, 1, 2, 3, 4, ending with 31"><g transform="translate(0.5,440.5)"><path class="background" aria-hidden="true" d="M0,0h0v0h0Z" pointer-events="none"/><g><g class="mark-rule role-axis-tick" pointer-events="none"><line transform="translate(10,0)" x2="0" y2="5" stroke="#888" stroke-width="1" opacity="1"/><line transform="translate(30,0)" x2="0" y2="5" stroke="#888" stroke-width="1" opacity="1"/><line transform="translate(50,0)" x2="0" y2="5" stroke="#888" stroke-width="1" opacity="1"/><line transform="translate(70,0)" x2="0" y2="5" stroke="#888" stroke-width="1" opacity="1"/><line transform="translate(90,0)" x2="0" y2="5" stroke="#888" stroke-width="1" opacity="1"/><line transform="translate(110,0)" x2="0" y2="5" stroke="#888" stroke-width="1" opacity="1"/><line transform="translate(130,0)" x2="0" y2="5" stroke="#888" stroke-width="1" opacity="1"/><line transform="translate(150,0)" x2="0" y2="5" stroke="#888" stroke-width="1" opacity="1"/><line transform="translate(170,0)" x2="0" y2="5" stroke="#888" stroke-width="1" opacity="1"/><line transform="translate(190,0)" x2="0" y2="5" stroke="#888" stroke-width="1" opacity="1"/><line transform="translate(210,0)" x2="0" y2="5" stroke="#888" stroke-width="1" opacity="1"/><line transform="translate(230,0)" x2="0" y2="5" stroke="#888" stroke-width="1" opacity="1"/><line transform="translate(250,0)" x2="0" y2="5" stroke="#888" stroke-width="1" opacity="1"/><line transform="translate(270,0)" x2="0" y2="5" stroke="#888" stroke-width="1" opacity="1"/><line transform="translate(290,0)" x2="0" y2="5" stroke="#888" stroke-width="1" opacity="1"/><line transform="translate(310,0)" x2="0" y2="5" stroke="#888" stroke-width="1" opacity="1"/><line transform="translate(330,0)" x2="0" y2="5" stroke="#888" stroke-width="1" opacity="1"/><line transform="translate(350,0)" x2="0" y2="5" stroke="#888" stroke-width="1" opacity="1"/><line transform="translate(370,0)" x2="0" y2="5" stroke="#888" stroke-width="1" opacity="1"/><line transform="translate(390,0)" x2="0" y2="5" stroke="#888" stroke-width="1" opacity="1"/><line transform="translate(410,0)" x2="0" y2="5" stroke="#888" stroke-width="1" opacity="1"/><line transform="translate(430,0)" x2="0" y2="5" stroke="#888" stroke-width="1" opacity="1"/><line transform="translate(450,0)" x2="0" y2="5" stroke="#888" stroke-width="1" opacity="1"/><line transform="translate(470,0)" x2="0" y2="5" stroke="#888" stroke-width="1" opacity="1"/><line transform="translate(490,0)" x2="0" y2="5" stroke="#888" stroke-width="1" opacity="1"/><line transform="translate(510,0)" x2="0" y2="5" stroke="#888" stroke-width="1" opacity="1"/></g><g class="mark-text role-axis-label" pointer-events="none"><text text-anchor="end" transform="translate(9.5,7) rotate(270) translate(0,3)" font-family="sans-serif" font-size="10px" fill="#000" opacity="1">0</text><text text-anchor="end" transform="translate(29.5,7) rotate(270) translate(0,3)" font-family="sans-serif" font-size="10px" fill="#000" opacity="1">1</text><text text-anchor="end" transform="translate(49.5,7) rotate(270) translate(0,3)" font-family="sans-serif" font-size="10px" fill="#000" opacity="1">2</text><text text-anchor="end" transform="translate(69.5,7) rotate(270) translate(0,3)" font-family="sans-serif" font-size="10px" fill="#000" opacity="1">3</text><text text-anchor="end" transform="translate(89.5,7) rotate(270) translate(0,3)" font-family="sans-serif" font-size="10px" fill="#000" opacity="1">4</text><text text-anchor="end" transform="translate(109.5,7) rotate(270) translate(0,3)" font-family="sans-serif" font-size="10px" fill="#000" opacity="1">5</text><text text-anchor="end" transform="translate(129.5,7) rotate(270) translate(0,3)" font-family="sans-serif" font-size="10px" fill="#000" opacity="1">6</text><text text-anchor="end" transform="translate(149.5,7) rotate(270) translate(0,3)" font-family="sans-serif" font-size="10px" fill="#000" opacity="1">7</text><text text-anchor="end" transform="translate(169.5,7) rotate(270) translate(0,3)" font-family="sans-serif" font-size="10px" fill="#000" opacity="1">8</text><text text-anchor="end" transform="translate(189.5,7) rotate(270) translate(0,3)" font-family="sans-serif" font-size="10px" fill="#000" opacity="1">9</text><text text-anchor="end" transform="translate(209.5,7) rotate(270) translate(0,3)" font-family="sans-serif" font-size="10px" fill="#000" opacity="1">10</text><text text-anchor="end" transform="translate(229.5,7) rotate(270) translate(0,3)" font-family="sans-serif" font-size="10px" fill="#000" opacity="1">11</text><text text-anchor="end" transform="translate(249.5,7) rotate(270) translate(0,3)" font-family="sans-serif" font-size="10px" fill="#000" opacity="1">12</text><text text-anchor="end" transform="translate(269.5,7) rotate(270) translate(0,3)" font-family="sans-serif" font-size="10px" fill="#000" opacity="1">13</text><text text-anchor="end" transform="translate(289.5,7) rotate(270) translate(0,3)" font-family="sans-serif" font-size="10px" fill="#000" opacity="1">14</text><text text-anchor="end" transform="translate(309.5,7) rotate(270) translate(0,3)" font-family="sans-serif" font-size="10px" fill="#000" opacity="1">15</text><text text-anchor="end" transform="translate(329.5,7) rotate(270) translate(0,3)" font-family="sans-serif" font-size="10px" fill="#000" opacity="1">16</text><text text-anchor="end" transform="translate(349.5,7) rotate(270) translate(0,3)" font-family="sans-serif" font-size="10px" fill="#000" opacity="1">17</text><text text-anchor="end" transform="translate(369.5,7) rotate(270) translate(0,3)" font-family="sans-serif" font-size="10px" fill="#000" opacity="1">18</text><text text-anchor="end" transform="translate(389.5,7) rotate(270) translate(0,3)" font-family="sans-serif" font-size="10px" fill="#000" opacity="1">19</text><text text-anchor="end" transform="translate(409.5,7) rotate(270) translate(0,3)" font-family="sans-serif" font-size="10px" fill="#000" opacity="1">20</text><text text-anchor="end" transform="translate(429.5,7) rotate(270) translate(0,3)" font-family="sans-serif" font-size="10px" fill="#000" opacity="1">21</text><text text-anchor="end" transform="translate(449.5,7) rotate(270) translate(0,3)" font-family="sans-serif" font-size="10px" fill="#000" opacity="1">22</text><text text-anchor="end" transform="translate(469.5,7) rotate(270) translate(0,3)" font-family="sans-serif" font-size="10px" fill="#000" opacity="1">24</text><text text-anchor="end" transform="translate(489.5,7) rotate(270) translate(0,3)" font-family="sans-serif" font-size="10px" fill="#000" opacity="1">30</text><text text-anchor="end" transform="translate(509.5,7) rotate(270) translate(0,3)" font-family="sans-serif" font-size="10px" fill="#000" opacity="1">31</text></g><g class="mark-rule role-axis-domain" pointer-events="none"><line transform="translate(0,0)" x2="520" y2="0" stroke="#888" stroke-width="1" opacity="1"/></g><g class="mark-text role-axis-title" pointer-events="none"><text text-anchor="middle" transform="translate(260,31.123046875)" font-family="sans-serif" font-size="11px" font-weight="bold" fill="#000" opacity="1">Gols do Time da Casa</text></g></g><path class="foreground" aria-hidden="true" d="" pointer-events="none" display="none"/></g></g><g class="mark-group role-axis" role="graphics-symbol" aria-roledescription="axis" aria-label="Y-axis titled 'Gols do Time Visitante' for a discrete scale with 22 values: 0, 1, 2, 3, 4, ending with 21"><g transform="translate(0.5,0.5)"><path class="background" aria-hidden="true" d="M0,0h0v0h0Z" pointer-events="none"/><g><g class="mark-rule role-axis-tick" pointer-events="none"><line transform="translate(0,10)" x2="-5" y2="0" stroke="#888" stroke-width="1" opacity="1"/><line transform="translate(0,30)" x2="-5" y2="0" stroke="#888" stroke-width="1" opacity="1"/><line transform="translate(0,50)" x2="-5" y2="0" stroke="#888" stroke-width="1" opacity="1"/><line transform="translate(0,70)" x2="-5" y2="0" stroke="#888" stroke-width="1" opacity="1"/><line transform="translate(0,90)" x2="-5" y2="0" stroke="#888" stroke-width="1" opacity="1"/><line transform="translate(0,110)" x2="-5" y2="0" stroke="#888" stroke-width="1" opacity="1"/><line transform="translate(0,130)" x2="-5" y2="0" stroke="#888" stroke-width="1" opacity="1"/><line transform="translate(0,150)" x2="-5" y2="0" stroke="#888" stroke-width="1" opacity="1"/><line transform="translate(0,170)" x2="-5" y2="0" stroke="#888" stroke-width="1" opacity="1"/><line transform="translate(0,190)" x2="-5" y2="0" stroke="#888" stroke-width="1" opacity="1"/><line transform="translate(0,210)" x2="-5" y2="0" stroke="#888" stroke-width="1" opacity="1"/><line transform="translate(0,230)" x2="-5" y2="0" stroke="#888" stroke-width="1" opacity="1"/><line transform="translate(0,250)" x2="-5" y2="0" stroke="#888" stroke-width="1" opacity="1"/><line transform="translate(0,270)" x2="-5" y2="0" stroke="#888" stroke-width="1" opacity="1"/><line transform="translate(0,290)" x2="-5" y2="0" stroke="#888" stroke-width="1" opacity="1"/><line transform="translate(0,310)" x2="-5" y2="0" stroke="#888" stroke-width="1" opacity="1"/><line transform="translate(0,330)" x2="-5" y2="0" stroke="#888" stroke-width="1" opacity="1"/><line transform="translate(0,350)" x2="-5" y2="0" stroke="#888" stroke-width="1" opacity="1"/><line transform="translate(0,370)" x2="-5" y2="0" stroke="#888" stroke-width="1" opacity="1"/><line transform="translate(0,390)" x2="-5" y2="0" stroke="#888" stroke-width="1" opacity="1"/><line transform="translate(0,410)" x2="-5" y2="0" stroke="#888" stroke-width="1" opacity="1"/><line transform="translate(0,430)" x2="-5" y2="0" stroke="#888" stroke-width="1" opacity="1"/></g><g class="mark-text role-axis-label" pointer-events="none"><text text-anchor="end" transform="translate(-7,12.5)" font-family="sans-serif" font-size="10px" fill="#000" opacity="1">0</text><text text-anchor="end" transform="translate(-7,32.5)" font-family="sans-serif" font-size="10px" fill="#000" opacity="1">1</text><text text-anchor="end" transform="translate(-7,52.5)" font-family="sans-serif" font-size="10px" fill="#000" opacity="1">2</text><text text-anchor="end" transform="translate(-7,72.5)" font-family="sans-serif" font-size="10px" fill="#000" opacity="1">3</text><text text-anchor="end" transform="translate(-7,92.5)" font-family="sans-serif" font-size="10px" fill="#000" opacity="1">4</text><text text-anchor="end" transform="translate(-7,112.5)" font-family="sans-serif" font-size="10px" fill="#000" opacity="1">5</text><text text-anchor="end" transform="translate(-7,132.5)" font-family="sans-serif" font-size="10px" fill="#000" opacity="1">6</text><text text-anchor="end" transform="translate(-7,152.5)" font-family="sans-serif" font-size="10px" fill="#000" opacity="1">7</text><text text-anchor="end" transform="translate(-7,172.5)" font-family="sans-serif" font-size="10px" fill="#000" opacity="1">8</text><text text-anchor="end" transform="translate(-7,192.5)" font-family="sans-serif" font-size="10px" fill="#000" opacity="1">9</text><text text-anchor="end" transform="translate(-7,212.5)" font-family="sans-serif" font-size="10px" fill="#000" opacity="1">10</text><text text-anchor="end" transform="translate(-7,232.5)" font-family="sans-serif" font-size="10px" fill="#000" opacity="1">11</text><text text-anchor="end" transform="translate(-7,252.5)" font-family="sans-serif" font-size="10px" fill="#000" opacity="1">12</text><text text-anchor="end" transform="translate(-7,272.5)" font-family="sans-serif" font-size="10px" fill="#000" opacity="1">13</text><text text-anchor="end" transform="translate(-7,292.5)" font-family="sans-serif" font-size="10px" fill="#000" opacity="1">14</text><text text-anchor="end" transform="translate(-7,312.5)" font-family="sans-serif" font-size="10px" fill="#000" opacity="1">15</text><text text-anchor="end" transform="translate(-7,332.5)" font-family="sans-serif" font-size="10px" fill="#000" opacity="1">16</text><text text-anchor="end" transform="translate(-7,352.5)" font-family="sans-serif" font-size="10px" fill="#000" opacity="1">17</text><text text-anchor="end" transform="translate(-7,372.5)" font-family="sans-serif" font-size="10px" fill="#000" opacity="1">18</text><text text-anchor="end" transform="translate(-7,392.5)" font-family="sans-serif" font-size="10px" fill="#000" opacity="1">19</text><text text-anchor="end" transform="translate(-7,412.5)" font-family="sans-serif" font-size="10px" fill="#000" opacity="1">20</text><text text-anchor="end" transform="translate(-7,432.5)" font-family="sans-serif" font-size="10px" fill="#000" opacity="1">21</text></g><g class="mark-rule role-axis-domain" pointer-events="none"><line transform="translate(0,0)" x2="0" y2="440" stroke="#888" stroke-width="1" opacity="1"/></g><g class="mark-text role-axis-title" pointer-events="none"><text text-anchor="middle" transform="translate(-22.123046875,220) rotate(-90) translate(0,-2)" font-family="sans-serif" font-size="11px" font-weight="bold" fill="#000" opacity="1">Gols do Time Visitante</text></g></g><path class="foreground" aria-hidden="true" d="" pointer-events="none" display="none"/></g></g></g><path class="foreground" aria-hidden="true" d="" display="none"/></g></g></g><defs><linearGradient id="gradient_0" x1="0" x2="0" y1="1" y2="0"><stop offset="0" stop-color="rgb(35, 23, 27)"/><stop offset="0.10068603712671509" stop-color="rgb(73, 87, 219)"/><stop offset="0.20157384987893462" stop-color="rgb(47, 156, 245)"/><stop offset="0.30246166263115415" stop-color="rgb(39, 213, 197)"/><stop offset="0.4033494753833737" stop-color="rgb(75, 247, 133)"/><stop offset="0.5042372881355932" stop-color="rgb(146, 251, 82)"/><stop offset="0.6051251008878128" stop-color="rgb(219, 223, 52)"/><stop offset="0.7060129136400323" stop-color="rgb(255, 168, 36)"/><stop offset="0.8069007263922519" stop-color="rgb(248, 99, 24)"/><stop offset="0.9077885391444713" stop-color="rgb(190, 37, 9)"/><stop offset="1" stop-color="rgb(145, 11, 0)"/></linearGradient></defs></svg>