<svg xmlns="http://www.w3.org/2000/svg" xmlns:xlink="http://www.w3.org/1999/xlink" version="1.1" class="marks" width="575" height="110" viewBox="0 0 575 110"><rect width="575" height="110" fill="white"/><g fill="none" stroke-miterlimit="10" transform="translate(82,9)"><g class="mark-group role-frame root" role="graphics-object" aria-roledescription="group mark container"><g transform="translate(0,0)"><path class="background" aria-hidden="true" d="M0.5,0.5h400v60h-400Z" stroke="#ddd"/><g><g class="mark-group role-axis" aria-hidden="true"><g transform="translate(0.5,60.5)"><path class="background" aria-hidden="true" d="M0,0h0v0h0Z" pointer-events="none"/><g><g class="mark-rule role-axis-grid" pointer-events="none"><line transform="translate(19,0)" x2="0" y2="-60" stroke="#ddd" stroke-width="1" opacity="1"/><line transform="translate(56,0)" x2="0" y2="-60" stroke="#ddd" stroke-width="1" opacity="1"/><line transform="translate(93,0)" x2="0" y2="-60" stroke="#ddd" stroke-width="1" opacity="1"/><line transform="translate(129,0)" x2="0" y2="-60" stroke="#ddd" stroke-width="1" opacity="1"/><line transform="translate(166,0)" x2="0" y2="-60" stroke="#ddd" stroke-width="1" opacity="1"/><line transform="translate(203,0)" x2="0" y2="-60" stroke="#ddd" stroke-width="1" opacity="1"/><line transform="translate(239,0)" x2="0" y2="-60" stroke="#ddd" stroke-width="1" opacity="1"/><line transform="translate(276,0)" x2="0" y2="-60" stroke="#ddd" stroke-width="1" opacity="1"/><line transform="translate(312,0)" x2="0" y2="-60" stroke="#ddd" stroke-width="1" opacity="1"/><line transform="translate(349,0)" x2="0" y2="-60" stroke="#ddd" stroke-width="1" opacity="1"/><line transform="translate(386,0)" x2="0" y2="-60" stroke="#ddd" stroke-width="1" opacity="1"/></g></g><path class="foreground" aria-hidden="true" d="" pointer-events="none" display="none"/></g></g><g class="mark-group role-axis" role="graphics-symbol" aria-roledescription="axis" aria-label="X-axis titled 'Data do Jogo' for a time scale with values from Saturday, 19 September 1914, 9:00:00 PM to Monday, 20 November 2023, 9:00:00 PM"><g transform="translate(0.5,60.5)"><path class="background" aria-hidden="true" d="M0,0h0v0h0Z" pointer-events="none"/><g><g class="mark-rule role-axis-tick" pointer-events="none"><line transform="translate(19,0)" x2="0" y2="5" stroke="#888" stroke-width="1" opacity="1"/><line transform="translate(56,0)" x2="0" y2="5" stroke="#888" stroke-width="1" opacity="1"/><line transform="translate(93,0)" x2="0" y2="5" stroke="#888" stroke-width="1" opacity="1"/><line transform="translate(129,0)" x2="0" y2="5" stroke="#888" stroke-width="1" opacity="1"/><line transform="translate(166,0)" x2="0" y2="5" stroke="#888" stroke-width="1" opacity="1"/><line transform="translate(203,0)" x2="0" y2="5" stroke="#888" stroke-width="1" opacity="1"/><line transform="translate(239,0)" x2="0" y2="5" stroke="#888" stroke-width="1" opacity="1"/><line transform="translate(276,0)" x2="0" y2="5" stroke="#888" stroke-width="1" opacity="1"/><line transform="translate(312,0)" x2="0" y2="5" stroke="#888" stroke-width="1" opacity="1"/><line transform="translate(349,0)" x2="0" y2="5" stroke="#888" stroke-width="1" opacity="1"/><line transform="translate(386,0)" x2="0" y2="5" stroke="#888" stroke-width="1" opacity="1"/></g><g class="mark-text role-axis-label" pointer-events="none"><text text-anchor="middle" transform="translate(19.352209459798363,16)" font-family="sans-serif" font-size="12px" fill="#000" opacity="1">1920</text><text text-anchor="middle" transform="translate(55.99764257410844,16)" font-family="sans-serif" font-size="12px" fill="#000" opacity="1">1930</text><text text-anchor="middle" transform="translate(92.63304408887997,16)" font-family="sans-serif" font-size="12px" fill="#000" opacity="1">1940</text><text text-anchor="middle" transform="translate(129.27805921987593,16)" font-family="sans-serif" font-size="12px" fill="#000" opacity="1">1950</text><text text-anchor="middle" transform="translate(165.91387871796158,16)" font-family="sans-serif" font-size="12px" fill="#000" opacity="1">1960</text><text text-anchor="middle" transform="translate(202.55931183227167,16)" font-family="sans-serif" font-size="12px" fill="#000" opacity="1">1970</text><text text-anchor="middle" transform="translate(239.19471334704318,16)" font-family="sans-serif" font-size="12px" fill="#000" opacity="1">1980</text><text text-anchor="middle" transform="translate(275.83972847803915,16)" font-family="sans-serif" font-size="12px" fill="#000" opacity="1">1990</text><text text-anchor="middle" transform="translate(312.4751299928107,16)" font-family="sans-serif" font-size="12px" fill="#000" opacity="1">2000</text><text text-anchor="middle" transform="translate(349.12056310712074,16)" font-family="sans-serif" font-size="12px" fill="#000" opacity="1">2010</text><text text-anchor="middle" transform="translate(385.7563826052064,16)" font-family="sans-serif" font-size="12px" fill="#000" opacity="1">2020</text></g><g class="mark-rule role-axis-domain" pointer-events="none"><line transform="translate(0,0)" x2="400" y2="0" stroke="#888" stroke-width="1" opacity="1"/></g><g class="mark-text role-axis-title" pointer-events="none"><text text-anchor="middle" transform="translate(200,33)" font-family="sans-serif" font-size="14px" font-weight="bold" fill="#000" opacity="1">Data do Jogo</text></g></g><path class="foreground" aria-hidden="true" d="" pointer-events="none" display="none"/></g></g><g class="mark-group role-axis" role="graphics-symbol" aria-roledescription="axis" aria-label="Y-axis titled 'Resultado' for a discrete scale with 3 values: Argentina, Brazil, Empate"><g transform="translate(0.5,0.5)"><path class="background" aria-hidden="true" d="M0,0h0v0h0Z" pointer-events="none"/><g><g class="mark-rule role-axis-tick" pointer-events="none"><line transform="translate(0,10)" x2="-5" y2="0" stroke="#888" stroke-width="1" opacity="1"/><line transform="translate(0,30)" x2="-5" y2="0" stroke="#888" stroke-width="1" opacity="1"/><line transform="translate(0,50)" x2="-5" y2="0" stroke="#888" stroke-width="1" opacity="1"/></g><g class="mark-text role-axis-label" pointer-events="none"><text text-anchor="end" transform="translate(-7,14)" font-family="sans-serif" font-size="12px" fill="#000" opacity="1">Argentina</text><text text-anchor="end" transform="translate(-7,34)" font-family="sans-serif" font-size="12px" fill="#000" opacity="1">Brazil</text><text text-anchor="end" transform="translate(-7,54)" font-family="sans-serif" font-size="12px" fill="#000" opacity="1">Empate</text></g><g class="mark-rule role-axis-domain" pointer-events="none"><line transform="translate(0,0)" x2="0" y2="60" stroke="#888" stroke-width="1" opacity="1"/></g><g class="mark-text role-axis-title" pointer-events="none"><text text-anchor="middle" transform="translate(-62.369140625,30) rotate(-90) translate(0,-3)" font-family="sans-serif" font-size="14px" font-weight="bold" fill="#000" opacity="1">Resultado</text></g></g><path class="foreground" aria-hidden="true" d="" pointer-events="none" display="none"/></g></g><g class="mark-group role-scope pathgroup" role="graphics-object" aria-roledescription="group mark container"><g transform="translate(0,0)"><path class="background" aria-hidden="true" d="M0,0h400v60h-400Z"/><g><g class="mark-line role-mark marks" role="graphics-object" aria-roledescription="line mark container"><path aria-label="Data do Jogo: Sep 19, 1914; Resultado: Argentina; Vencedor: Argentina; Data: Sep 19, 1914; Time da Casa: Argentina; Time Visitante: Brazil; Placar Casa: 3; Placar Visitante: 0" role="graphics-symbol" aria-roledescription="line mark" d="M0,10L11.125,10L22.039,10L25.771,10L33.566,10L33.776,10L41.15,10L81.938,10L81.958,10L89.111,10L93.184,10L93.274,10L93.394,10L100.125,10L111.411,10L114.461,10L115.022,10L155.851,10L156.804,10L165.812,10L166.635,10L167.377,10L177.73,10L177.93,10L182.114,10L203.18,10L252.546,10L277.584,10L281.477,10L306.335,10L311.281,10L318.624,10L332.387,10L352.33,10L358.048,10L359.703,10L376.366,10L385.284,10L391.333,10L400,10" stroke="rgb(20, 98, 154)" stroke-width="2"/></g></g><path class="foreground" aria-hidden="true" d="" display="none"/></g><g transform="translate(0,0)"><path class="background" aria-hidden="true" d="M0,0h400v60h-400Z"/><g><g class="mark-line role-mark marks" role="graphics-object" aria-roledescription="line mark container"><path aria-label="Data do Jogo: Sep 26, 1914; Resultado: Brazil; Vencedor: Brazil; Data: Sep 26, 1914; Time da Casa: Argentina; Time Visitante: Brazil; Placar Casa: 0; Placar Visitante: 1" role="graphics-symbol" aria-roledescription="line mark" d="M0.07,30L17.064,30L29.563,30L29.633,30L33.706,30L89.181,30L93.324,30L114.501,30L114.531,30L151.608,30L156.834,30L166.705,30L167.407,30L167.849,30L177.961,30L197.422,30L197.462,30L203.22,30L219.02,30L223.053,30L223.153,30L225.109,30L225.932,30L237.669,30L248.352,30L258.765,30L274.103,30L291.308,30L297.276,30L310.729,30L311.311,30L314.551,30L328.665,30L332.598,30L336.921,30L340.081,30L347.936,30L355.49,30L359.071,30L366.615,30L374.249,30L381.321,30L383.919,30" stroke="rgb(3, 154, 199)" stroke-width="2"/></g></g><path class="foreground" aria-hidden="true" d="" display="none"/></g><g transform="translate(0,0)"><path class="background" aria-hidden="true" d="M0,0h400v60h-400Z"/><g><g class="mark-line role-mark marks" role="graphics-object" aria-roledescription="line mark container"><path aria-label="Data do Jogo: Jul 09, 1916; Resultado: Empate; Vencedor: Empate; Data: Jul 09, 1916; Time da Casa: Argentina; Time Visitante: Brazil; Placar Casa: 1; Placar Visitante: 1" role="graphics-symbol" aria-roledescription="line mark" d="M6.611,50L17.204,50L41.27,50L93.113,50L152.029,50L153.152,50L163.184,50L185.835,50L208.306,50L208.336,50L233.556,50L237.879,50L242.895,50L252.756,50L255.535,50L270.422,50L280.353,50L281.276,50L287.315,50L288.609,50L296.133,50L329.197,50L343.482,50L355.349,50L370.607,50L392.627,50" stroke="rgb(51, 212, 233)" stroke-width="2"/></g></g><path class="foreground" aria-hidden="true" d="" display="none"/></g></g><g class="mark-group role-legend" role="graphics-symbol" aria-roledescription="legend" aria-label="Symbol legend titled 'Vencedor' for stroke color with 3 values: Argentina, Brazil, Empate"><g transform="translate(420,0)"><path class="background" aria-hidden="true" d="M0,0h68v59h-68Z" pointer-events="none"/><g><g class="mark-group role-legend-entry"><g transform="translate(0,19)"><path class="background" aria-hidden="true" d="M0,0h0v0h0Z" pointer-events="none"/><g><g class="mark-group role-scope" role="graphics-object" aria-roledescription="group mark container"><g transform="translate(0,0)"><path class="background" aria-hidden="true" d="M0,0h67.369140625v12h-67.369140625Z" pointer-events="none" opacity="1"/><g><g class="mark-symbol role-legend-symbol" pointer-events="none"><path transform="translate(6,6)" d="M-5,0L5,0" stroke="rgb(20, 98, 154)" stroke-width="1.5" opacity="1"/></g><g class="mark-text role-legend-label" pointer-events="none"><text text-anchor="start" transform="translate(16,10)" font-family="sans-serif" font-size="12px" fill="#000" opacity="1">Argentina</text></g></g><path class="foreground" aria-hidden="true" d="" pointer-events="none" display="none"/></g><g transform="translate(0,14)"><path class="background" aria-hidden="true" d="M0,0h67.369140625v12h-67.369140625Z" pointer-events="none" opacity="1"/><g><g class="mark-symbol role-legend-symbol" pointer-events="none"><path transform="translate(6,6)" d="M-5,0L5,0" stroke="rgb(3, 154, 199)" stroke-width="1.5" opacity="1"/></g><g class="mark-text role-legend-label" pointer-events="none"><text text-anchor="start" transform="translate(16,10)" font-family="sans-serif" font-size="12px" fill="#000" opacity="1">Brazil</text></g></g><path class="foreground" aria-hidden="true" d="" pointer-events="none" display="none"/></g><g transform="translate(0,28)"><path class="background" aria-hidden="true" d="M0,0h67.369140625v12h-67.369140625Z" pointer-events="none" opacity="1"/><g><g class="mark-symbol role-legend-symbol" pointer-events="none"><path transform="translate(6,6)" d="M-5,0L5,0" stroke="rgb(51, 212, 233)" stroke-width="1.5" opacity="1"/></g><g class="mark-text role-legend-label" pointer-events="none"><text text-anchor="start" transform="translate(16,10)" font-family="sans-serif" font-size="12px" fill="#000" opacity="1">Empate</text></g></g><path class="foreground" aria-hidden="true" d="" pointer-events="none" display="none"/></g></g></g><path class="foreground" aria-hidden="true" d="" pointer-events="none" display="none"/></g></g><g class="mark-text role-legend-title" pointer-events="none"><text text-anchor="start" transform="translate(0,11)" font-family="sans-serif" font-size="14px" font-weight="bold" fill="#000" opacity="1">Vencedor</text></g></g><path class="foreground" aria-hidden="true" d="" pointer-events="none" display="none"/></g></g></g><path class="foreground" aria-hidden="true" d="" display="none"/></g></g></g></svg>