<svg xmlns="http://www.w3.org/2000/svg" xmlns:xlink="http://www.w3.org/1999/xlink" version="1.1" class="marks" width="733" height="322" viewBox="0 0 733 322"><rect width="733" height="322" fill="white"/><g fill="none" stroke-miterlimit="10" transform="translate(51,5)"><g class="mark-group role-frame root" role="graphics-object" aria-roledescription="group mark container"><g transform="translate(0,0)"><path class="background" aria-hidden="true" d="M0.5,0.5h550v200h-550Z" stroke="#ddd"/><g><g class="mark-group role-axis" aria-hidden="true"><g transform="translate(0.5,0.5)"><path class="background" aria-hidden="true" d="M0,0h0v0h0Z" pointer-events="none"/><g><g class="mark-rule role-axis-grid" pointer-events="none"><line transform="translate(0,200)" x2="550" y2="0" stroke="#ddd" stroke-width="1" opacity="1"/><line transform="translate(0,164)" x2="550" y2="0" stroke="#ddd" stroke-width="1" opacity="1"/><line transform="translate(0,127)" x2="550" y2="0" stroke="#ddd" stroke-width="1" opacity="1"/><line transform="translate(0,91)" x2="550" y2="0" stroke="#ddd" stroke-width="1" opacity="1"/><line transform="translate(0,55)" x2="550" y2="0" stroke="#ddd" stroke-width="1" opacity="1"/><line transform="translate(0,18)" x2="550" y2="0" stroke="#ddd" stroke-width="1" opacity="1"/></g></g><path class="foreground" aria-hidden="true" d="" pointer-events="none" display="none"/></g></g><g class="mark-group role-axis" role="graphics-symbol" aria-roledescription="axis" aria-label="X-axis titled 'Artilheiro' for a discrete scale with 11 values: Cristiano Ronaldo, Robert Lewandowski, Romelu Lukaku, Harry Kane, Lionel Messi, ending with Aleksandar Mitrović"><g transform="translate(0.5,200.5)"><path class="background" aria-hidden="true" d="M0,0h0v0h0Z" pointer-events="none"/><g><g class="mark-rule role-axis-tick" pointer-events="none"><line transform="translate(25,0)" x2="0" y2="5" stroke="#888" stroke-width="1" opacity="1"/><line transform="translate(75,0)" x2="0" y2="5" stroke="#888" stroke-width="1" opacity="1"/><line transform="translate(125,0)" x2="0" y2="5" stroke="#888" stroke-width="1" opacity="1"/><line transform="translate(175,0)" x2="0" y2="5" stroke="#888" stroke-width="1" opacity="1"/><line transform="translate(225,0)" x2="0" y2="5" stroke="#888" stroke-width="1" opacity="1"/><line transform="translate(275,0)" x2="0" y2="5" stroke="#888" stroke-width="1" opacity="1"/><line transform="translate(325,0)" x2="0" y2="5" stroke="#888" stroke-width="1" opacity="1"/><line transform="translate(375,0)" x2="0" y2="5" stroke="#888" stroke-width="1" opacity="1"/><line transform="translate(425,0)" x2="0" y2="5" stroke="#888" stroke-width="1" opacity="1"/><line transform="translate(475,0)" x2="0" y2="5" stroke="#888" stroke-width="1" opacity="1"/><line transform="translate(525,0)" x2="0" y2="5" stroke="#888" stroke-width="1" opacity="1"/></g><g class="mark-text role-axis-label" pointer-events="none"><text text-anchor="end" transform="translate(24.5,7) rotate(315) translate(0,9)" font-family="sans-serif" font-size="12px" fill="#000" opacity="1">Cristiano Ronaldo</text><text text-anchor="end" transform="translate(74.5,7) rotate(315) translate(0,9)" font-family="sans-serif" font-size="12px" fill="#000" opacity="1">Robert Lewandowski</text><text text-anchor="end" transform="translate(124.5,7) rotate(315) translate(0,9)" font-family="sans-serif" font-size="12px" fill="#000" opacity="1">Romelu Lukaku</text><text text-anchor="end" transform="translate(174.5,7) rotate(315) translate(0,9)" font-family="sans-serif" font-size="12px" fill="#000" opacity="1">Harry Kane</text><text text-anchor="end" transform="translate(224.5,7) rotate(315) translate(0,9)" font-family="sans-serif" font-size="12px" fill="#000" opacity="1">Lionel Messi</text><text text-anchor="end" transform="translate(274.5,7) rotate(315) translate(0,9)" font-family="sans-serif" font-size="12px" fill="#000" opacity="1">Edin Džeko</text><text text-anchor="end" transform="translate(324.5,7) rotate(315) translate(0,9)" font-family="sans-serif" font-size="12px" fill="#000" opacity="1">Ali Daei</text><text text-anchor="end" transform="translate(374.5,7) rotate(315) translate(0,9)" font-family="sans-serif" font-size="12px" fill="#000" opacity="1">Miroslav Klose</text><text text-anchor="end" transform="translate(424.5,7) rotate(315) translate(0,9)" font-family="sans-serif" font-size="12px" fill="#000" opacity="1">Carlos Ruiz</text><text text-anchor="end" transform="translate(474.5,7) rotate(315) translate(0,9)" font-family="sans-serif" font-size="12px" fill="#000" opacity="1">Luis Suárez</text><text text-anchor="end" transform="translate(524.5,7) rotate(315) translate(0,9)" font-family="sans-serif" font-size="12px" fill="#000" opacity="1">Aleksandar Mitrović</text></g><g class="mark-rule role-axis-domain" pointer-events="none"><line transform="translate(0,0)" x2="550" y2="0" stroke="#888" stroke-width="1" opacity="1"/></g><g class="mark-text role-axis-title" pointer-events="none"><text text-anchor="middle" transform="translate(275,108.54462195909181)" font-family="sans-serif" font-size="14px" font-weight="bold" fill="#000" opacity="1">Artilheiro</text></g></g><path class="foreground" aria-hidden="true" d="" pointer-events="none" display="none"/></g></g><g class="mark-group role-axis" role="graphics-symbol" aria-roledescription="axis" aria-label="Y-axis titled 'Número de Gols' for a linear scale with values from 0 to 110"><g transform="translate(0.5,0.5)"><path class="background" aria-hidden="true" d="M0,0h0v0h0Z" pointer-events="none"/><g><g class="mark-rule role-axis-tick" pointer-events="none"><line transform="translate(0,200)" x2="-5" y2="0" stroke="#888" stroke-width="1" opacity="1"/><line transform="translate(0,164)" x2="-5" y2="0" stroke="#888" stroke-width="1" opacity="1"/><line transform="translate(0,127)" x2="-5" y2="0" stroke="#888" stroke-width="1" opacity="1"/><line transform="translate(0,91)" x2="-5" y2="0" stroke="#888" stroke-width="1" opacity="1"/><line transform="translate(0,55)" x2="-5" y2="0" stroke="#888" stroke-width="1" opacity="1"/><line transform="translate(0,18)" x2="-5" y2="0" stroke="#888" stroke-width="1" opacity="1"/></g><g class="mark-text role-axis-label" pointer-events="none"><text text-anchor="end" transform="translate(-7,204)" font-family="sans-serif" font-size="12px" fill="#000" opacity="1">0</text><text text-anchor="end" transform="translate(-7,167.63636363636363)" font-family="sans-serif" font-size="12px" fill="#000" opacity="1">20</text><text text-anchor="end" transform="translate(-7,131.27272727272725)" font-family="sans-serif" font-size="12px" fill="#000" opacity="1">40</text><text text-anchor="end" transform="translate(-7,94.90909090909092)" font-family="sans-serif" font-size="12px" fill="#000" opacity="1">60</text><text text-anchor="end" transform="translate(-7,58.54545454545454)" font-family="sans-serif" font-size="12px" fill="#000" opacity="1">80</text><text text-anchor="end" transform="translate(-7,22.181818181818187)" font-family="sans-serif" font-size="12px" fill="#000" opacity="1">100</text></g><g class="mark-rule role-axis-domain" pointer-events="none"><line transform="translate(0,200)" x2="0" y2="-200" stroke="#888" stroke-width="1" opacity="1"/></g><g class="mark-text role-axis-title" pointer-events="none"><text text-anchor="middle" transform="translate(-31.021484375,100) rotate(-90) translate(0,-3)" font-family="sans-serif" font-size="14px" font-weight="bold" fill="#000" opacity="1">Número de Gols</text></g></g><path class="foreground" aria-hidden="true" d="" pointer-events="none" display="none"/></g></g><g class="mark-group role-scope" role="graphics-object" aria-roledescription="group mark container"><g transform="translate(302.5,110.9090909090909)"><path class="background" aria-hidden="true" d="M3,0L42,0C43.655745073482,0,45,1.344254926518,45,3L45,89.0909090909091C45,89.0909090909091,45,89.0909090909091,45,89.0909090909091L0,89.0909090909091C0,89.0909090909091,0,89.0909090909091,0,89.0909090909091L0,3C0,1.344254926518,1.344254926518,0,3,0Z"/><g clip-path="url(#clip1)"><g class="mark-group role-scope" role="graphics-object" aria-roledescription="group mark container"><g transform="translate(0,-110.9090909090909)"><path class="background" aria-hidden="true" d="M0,0h45v0h-45Z"/><g><g class="mark-rect role-mark marks" role="graphics-object" aria-roledescription="rect mark container"><path aria-label="Artilheiro: Ali Daei; Número de Gols: 49; goals: 49; Jogador: Ali Daei; Gols: 49; Time: Iran; Década: undefined" role="graphics-symbol" aria-roledescription="bar" d="M0,110.9090909090909h45v89.0909090909091h-45Z" fill="rgb(62, 43, 115)"/></g></g><path class="foreground" aria-hidden="true" d="" display="none"/></g></g></g><path class="foreground" aria-hidden="true" d="" display="none"/></g><g transform="translate(402.5,114.54545454545455)"><path class="background" aria-hidden="true" d="M3,0L42,0C43.655745073482,0,45,1.344254926518,45,3L45,85.45454545454545C45,85.45454545454545,45,85.45454545454545,45,85.45454545454545L0,85.45454545454545C0,85.45454545454545,0,85.45454545454545,0,85.45454545454545L0,3C0,1.344254926518,1.344254926518,0,3,0Z"/><g clip-path="url(#clip2)"><g class="mark-group role-scope" role="graphics-object" aria-roledescription="group mark container"><g transform="translate(0,-114.54545454545455)"><path class="background" aria-hidden="true" d="M0,0h45v0h-45Z"/><g><g class="mark-rect role-mark marks" role="graphics-object" aria-roledescription="rect mark container"><path aria-label="Artilheiro: Carlos Ruiz; Número de Gols: 47; goals: 47; Jogador: Carlos Ruiz; Gols: 47; Time: Guatemala; Década: undefined" role="graphics-symbol" aria-roledescription="bar" d="M0,114.54545454545455h45v85.45454545454545h-45Z" fill="rgb(35, 23, 27)"/></g></g><path class="foreground" aria-hidden="true" d="" display="none"/></g></g></g><path class="foreground" aria-hidden="true" d="" display="none"/></g><g transform="translate(352.5,112.72727272727275)"><path class="background" aria-hidden="true" d="M3,0L42,0C43.655745073482,0,45,1.344254926518,45,3L45,87.27272727272725C45,87.27272727272725,45,87.27272727272725,45,87.27272727272725L0,87.27272727272725C0,87.27272727272725,0,87.27272727272725,0,87.27272727272725L0,3C0,1.344254926518,1.344254926518,0,3,0Z"/><g clip-path="url(#clip3)"><g class="mark-group role-scope" role="graphics-object" aria-roledescription="group mark container"><g transform="translate(0,-112.72727272727275)"><path class="background" aria-hidden="true" d="M0,0h45v0h-45Z"/><g><g class="mark-rect role-mark marks" role="graphics-object" aria-roledescription="rect mark container"><path aria-label="Artilheiro: Miroslav Klose; Número de Gols: 48; goals: 48; Jogador: Miroslav Klose; Gols: 48; Time: Germany; Década: undefined" role="graphics-symbol" aria-roledescription="bar" d="M0,112.72727272727275h45v87.27272727272725h-45Z" fill="rgb(50, 32, 75)"/></g></g><path class="foreground" aria-hidden="true" d="" display="none"/></g></g></g><path class="foreground" aria-hidden="true" d="" display="none"/></g><g transform="translate(2.5,3.6363636363636376)"><path class="background" aria-hidden="true" d="M3,0L42,0C43.655745073482,0,45,1.344254926518,45,3L45,196.36363636363637C45,196.36363636363637,45,196.36363636363637,45,196.36363636363637L0,196.36363636363637C0,196.36363636363637,0,196.36363636363637,0,196.36363636363637L0,3C0,1.344254926518,1.344254926518,0,3,0Z"/><g clip-path="url(#clip4)"><g class="mark-group role-scope" role="graphics-object" aria-roledescription="group mark container"><g transform="translate(0,-3.6363636363636376)"><path class="background" aria-hidden="true" d="M0,0h45v0h-45Z"/><g><g class="mark-rect role-mark marks" role="graphics-object" aria-roledescription="rect mark container"><path aria-label="Artilheiro: Cristiano Ronaldo; Número de Gols: 108; goals: 108; Jogador: Cristiano Ronaldo; Gols: 108; Time: Portugal; Década: undefined" role="graphics-symbol" aria-roledescription="bar" d="M0,3.6363636363636376h45v196.36363636363637h-45Z" fill="rgb(145, 11, 0)"/></g></g><path class="foreground" aria-hidden="true" d="" display="none"/></g></g></g><path class="foreground" aria-hidden="true" d="" display="none"/></g><g transform="translate(202.5,100)"><path class="background" aria-hidden="true" d="M3,0L42,0C43.655745073482,0,45,1.344254926518,45,3L45,100C45,100,45,100,45,100L0,100C0,100,0,100,0,100L0,3C0,1.344254926518,1.344254926518,0,3,0Z"/><g clip-path="url(#clip5)"><g class="mark-group role-scope" role="graphics-object" aria-roledescription="group mark container"><g transform="translate(0,-100)"><path class="background" aria-hidden="true" d="M0,0h45v0h-45Z"/><g><g class="mark-rect role-mark marks" role="graphics-object" aria-roledescription="rect mark container"><path aria-label="Artilheiro: Lionel Messi; Número de Gols: 55; goals: 55; Jogador: Lionel Messi; Gols: 55; Time: Argentina; Década: undefined" role="graphics-symbol" aria-roledescription="bar" d="M0,100h45v100h-45Z" fill="rgb(68, 108, 240)"/></g></g><path class="foreground" aria-hidden="true" d="" display="none"/></g></g></g><path class="foreground" aria-hidden="true" d="" display="none"/></g><g transform="translate(252.5,109.09090909090908)"><path class="background" aria-hidden="true" d="M3,0L42,0C43.655745073482,0,45,1.344254926518,45,3L45,90.90909090909092C45,90.90909090909092,45,90.90909090909092,45,90.90909090909092L0,90.90909090909092C0,90.90909090909092,0,90.90909090909092,0,90.90909090909092L0,3C0,1.344254926518,1.344254926518,0,3,0Z"/><g clip-path="url(#clip6)"><g class="mark-group role-scope" role="graphics-object" aria-roledescription="group mark container"><g transform="translate(0,-109.09090909090908)"><path class="background" aria-hidden="true" d="M0,0h45v0h-45Z"/><g><g class="mark-rect role-mark marks" role="graphics-object" aria-roledescription="rect mark container"><path aria-label="Artilheiro: Edin Džeko; Número de Gols: 50; goals: 50; Jogador: Edin Džeko; Gols: 50; Time: Bosnia and Herzegovina; Década: undefined" role="graphics-symbol" aria-roledescription="bar" d="M0,109.09090909090908h45v90.90909090909092h-45Z" fill="rgb(69, 53, 150)"/></g></g><path class="foreground" aria-hidden="true" d="" display="none"/></g></g></g><path class="foreground" aria-hidden="true" d="" display="none"/></g><g transform="translate(452.5,114.54545454545455)"><path class="background" aria-hidden="true" d="M3,0L42,0C43.655745073482,0,45,1.344254926518,45,3L45,85.45454545454545C45,85.45454545454545,45,85.45454545454545,45,85.45454545454545L0,85.45454545454545C0,85.45454545454545,0,85.45454545454545,0,85.45454545454545L0,3C0,1.344254926518,1.344254926518,0,3,0Z"/><g clip-path="url(#clip7)"><g class="mark-group role-scope" role="graphics-object" aria-roledescription="group mark container"><g transform="translate(0,-114.54545454545455)"><path class="background" aria-hidden="true" d="M0,0h45v0h-45Z"/><g><g class="mark-rect role-mark marks" role="graphics-object" aria-roledescription="rect mark container"><path aria-label="Artilheiro: Luis Suárez; Número de Gols: 47; goals: 47; Jogador: Luis Suárez; Gols: 47; Time: Uruguay; Década: undefined" role="graphics-symbol" aria-roledescription="bar" d="M0,114.54545454545455h45v85.45454545454545h-45Z" fill="rgb(35, 23, 27)"/></g></g><path class="foreground" aria-hidden="true" d="" display="none"/></g></g></g><path class="foreground" aria-hidden="true" d="" display="none"/></g><g transform="translate(52.5,85.45454545454545)"><path class="background" aria-hidden="true" d="M3,0L42,0C43.655745073482,0,45,1.344254926518,45,3L45,114.54545454545455C45,114.54545454545455,45,114.54545454545455,45,114.54545454545455L0,114.54545454545455C0,114.54545454545455,0,114.54545454545455,0,114.54545454545455L0,3C0,1.344254926518,1.344254926518,0,3,0Z"/><g clip-path="url(#clip8)"><g class="mark-group role-scope" role="graphics-object" aria-roledescription="group mark container"><g transform="translate(0,-85.45454545454545)"><path class="background" aria-hidden="true" d="M0,0h45v0h-45Z"/><g><g class="mark-rect role-mark marks" role="graphics-object" aria-roledescription="rect mark container"><path aria-label="Artilheiro: Robert Lewandowski; Número de Gols: 63; goals: 63; Jogador: Robert Lewandowski; Gols: 63; Time: Poland; Década: undefined" role="graphics-symbol" aria-roledescription="bar" d="M0,85.45454545454545h45v114.54545454545455h-45Z" fill="rgb(37, 193, 221)"/></g></g><path class="foreground" aria-hidden="true" d="" display="none"/></g></g></g><path class="foreground" aria-hidden="true" d="" display="none"/></g><g transform="translate(502.5,114.54545454545455)"><path class="background" aria-hidden="true" d="M3,0L42,0C43.655745073482,0,45,1.344254926518,45,3L45,85.45454545454545C45,85.45454545454545,45,85.45454545454545,45,85.45454545454545L0,85.45454545454545C0,85.45454545454545,0,85.45454545454545,0,85.45454545454545L0,3C0,1.344254926518,1.344254926518,0,3,0Z"/><g clip-path="url(#clip9)"><g class="mark-group role-scope" role="graphics-object" aria-roledescription="group mark container"><g transform="translate(0,-114.54545454545455)"><path class="background" aria-hidden="true" d="M0,0h45v0h-45Z"/><g><g class="mark-rect role-mark marks" role="graphics-object" aria-roledescription="rect mark container"><path aria-label="Artilheiro: Aleksandar Mitrović; Número de Gols: 47; goals: 47; Jogador: Aleksandar Mitrović; Gols: 47; Time: Serbia; Década: undefined" role="graphics-symbol" aria-roledescription="bar" d="M0,114.54545454545455h45v85.45454545454545h-45Z" fill="rgb(35, 23, 27)"/></g></g><path class="foreground" aria-hidden="true" d="" display="none"/></g></g></g><path class="foreground" aria-hidden="true" d="" display="none"/></g><g transform="translate(102.5,90.90909090909092)"><path class="background" aria-hidden="true" d="M3,0L42,0C43.655745073482,0,45,1.344254926518,45,3L45,109.09090909090908C45,109.09090909090908,45,109.09090909090908,45,109.09090909090908L0,109.09090909090908C0,109.09090909090908,0,109.09090909090908,0,109.09090909090908L0,3C0,1.344254926518,1.344254926518,0,3,0Z"/><g clip-path="url(#clip10)"><g class="mark-group role-scope" role="graphics-object" aria-roledescription="group mark container"><g transform="translate(0,-90.90909090909092)"><path class="background" aria-hidden="true" d="M0,0h45v0h-45Z"/><g><g class="mark-rect role-mark marks" role="graphics-object" aria-roledescription="rect mark container"><path aria-label="Artilheiro: Romelu Lukaku; Número de Gols: 60; goals: 60; Jogador: Romelu Lukaku; Gols: 60; Time: Belgium; Década: undefined" role="graphics-symbol" aria-roledescription="bar" d="M0,90.90909090909092h45v109.09090909090908h-45Z" fill="rgb(45, 163, 242)"/></g></g><path class="foreground" aria-hidden="true" d="" display="none"/></g></g></g><path class="foreground" aria-hidden="true" d="" display="none"/></g><g transform="translate(152.5,94.54545454545456)"><path class="background" aria-hidden="true" d="M3,0L42,0C43.655745073482,0,45,1.344254926518,45,3L45,105.45454545454544C45,105.45454545454544,45,105.45454545454544,45,105.45454545454544L0,105.45454545454544C0,105.45454545454544,0,105.45454545454544,0,105.45454545454544L0,3C0,1.344254926518,1.344254926518,0,3,0Z"/><g clip-path="url(#clip11)"><g class="mark-group role-scope" role="graphics-object" aria-roledescription="group mark container"><g transform="translate(0,-94.54545454545456)"><path class="background" aria-hidden="true" d="M0,0h45v0h-45Z"/><g><g class="mark-rect role-mark marks" role="graphics-object" aria-roledescription="rect mark container"><path aria-label="Artilheiro: Harry Kane; Número de Gols: 58; goals: 58; Jogador: Harry Kane; Gols: 58; Time: England; Década: undefined" role="graphics-symbol" aria-roledescription="bar" d="M0,94.54545454545456h45v105.45454545454544h-45Z" fill="rgb(53, 142, 248)"/></g></g><path class="foreground" aria-hidden="true" d="" display="none"/></g></g></g><path class="foreground" aria-hidden="true" d="" display="none"/></g></g><g class="mark-group role-legend" role="graphics-symbol" aria-roledescription="legend" aria-label="Gradient legend titled 'Número de Gols' for fill color with values from 47 to 108"><g transform="translate(568,0)"><path class="background" aria-hidden="true" d="M0,0h109v219h-109Z" pointer-events="none"/><g><g class="mark-group role-legend-entry"><g transform="translate(0,19)"><path class="background" aria-hidden="true" d="M0,0h0v0h0Z" pointer-events="none"/><g><g class="mark-rect role-legend-gradient" pointer-events="none"><path d="M0,0h16v200h-16Z" fill="url(#gradient_1)" stroke="#ddd" stroke-width="0" opacity="1"/></g><g class="mark-text role-legend-label" pointer-events="none"><text text-anchor="start" transform="translate(18,161.37704918032787)" font-family="sans-serif" font-size="12px" fill="#000" opacity="1">60</text><text text-anchor="start" transform="translate(18,95.80327868852459)" font-family="sans-serif" font-size="12px" fill="#000" opacity="1">80</text><text text-anchor="start" transform="translate(18,30.22950819672132)" font-family="sans-serif" font-size="12px" fill="#000" opacity="1">100</text></g></g><path class="foreground" aria-hidden="true" d="" pointer-events="none" display="none"/></g></g><g class="mark-text role-legend-title" pointer-events="none"><text text-anchor="start" transform="translate(0,11)" font-family="sans-serif" font-size="14px" font-weight="bold" fill="#000" opacity="1">Número de Gols</text></g></g><path class="foreground" aria-hidden="true" d="" pointer-events="none" display="none"/></g></g></g><path class="foreground" aria-hidden="true" d="" display="none"/></g></g></g><defs><linearGradient id="gradient_1" x1="0" x2="0" y1="1" y2="0"><stop offset="0" stop-color="rgb(35, 23, 27)"/><stop offset="0.04918032786885246" stop-color="rgb(69, 53, 150)"/><stop offset="0.13114754098360656" stop-color="rgb(68, 108, 240)"/><stop offset="0.21311475409836064" stop-color="rgb(45, 163, 242)"/><stop offset="0.29508196721311475" stop-color="rgb(38, 210, 202)"/><stop offset="0.3770491803278688" stop-color="rgb(61, 242, 149)"/><stop offset="0.45901639344262296" stop-color="rgb(111, 254, 103)"/><stop offset="0.5409836065573771" stop-color="rgb(174, 245, 69)"/><stop offset="0.6229508196721312" stop-color="rgb(230, 215, 48)"/><stop offset="0.7049180327868853" stop-color="rgb(255, 168, 36)"/><stop offset="0.7868852459016393" stop-color="rgb(254, 113, 27)"/><stop offset="0.8688524590163934" stop-color="rgb(216, 58, 16)"/><stop offset="0.9508196721311475" stop-color="rgb(164, 19, 2)"/><stop offset="1" stop-color="rgb(145, 11, 0)"/></linearGradient><clipPath id="clip1"><path d="M3,0L42,0C43.655745073482,0,45,1.344254926518,45,3L45,89.0909090909091C45,89.0909090909091,45,89.0909090909091,45,89.0909090909091L0,89.0909090909091C0,89.0909090909091,0,89.0909090909091,0,89.0909090909091L0,3C0,1.344254926518,1.344254926518,0,3,0Z"/></clipPath><clipPath id="clip2"><path d="M3,0L42,0C43.655745073482,0,45,1.344254926518,45,3L45,85.45454545454545C45,85.45454545454545,45,85.45454545454545,45,85.45454545454545L0,85.45454545454545C0,85.45454545454545,0,85.45454545454545,0,85.45454545454545L0,3C0,1.344254926518,1.344254926518,0,3,0Z"/></clipPath><clipPath id="clip3"><path d="M3,0L42,0C43.655745073482,0,45,1.344254926518,45,3L45,87.27272727272725C45,87.27272727272725,45,87.27272727272725,45,87.27272727272725L0,87.27272727272725C0,87.27272727272725,0,87.27272727272725,0,87.27272727272725L0,3C0,1.344254926518,1.344254926518,0,3,0Z"/></clipPath><clipPath id="clip4"><path d="M3,0L42,0C43.655745073482,0,45,1.344254926518,45,3L45,196.36363636363637C45,196.36363636363637,45,196.36363636363637,45,196.36363636363637L0,196.36363636363637C0,196.36363636363637,0,196.36363636363637,0,196.36363636363637L0,3C0,1.344254926518,1.344254926518,0,3,0Z"/></clipPath><clipPath id="clip5"><path d="M3,0L42,0C43.655745073482,0,45,1.344254926518,45,3L45,100C45,100,45,100,45,100L0,100C0,100,0,100,0,100L0,3C0,1.344254926518,1.344254926518,0,3,0Z"/></clipPath><clipPath id="clip6"><path d="M3,0L42,0C43.655745073482,0,45,1.344254926518,45,3L45,90.90909090909092C45,90.90909090909092,45,90.90909090909092,45,90.90909090909092L0,90.90909090909092C0,90.90909090909092,0,90.90909090909092,0,90.90909090909092L0,3C0,1.344254926518,1.344254926518,0,3,0Z"/></clipPath><clipPath id="clip7"><path d="M3,0L42,0C43.655745073482,0,45,1.344254926518,45,3L45,85.45454545454545C45,85.45454545454545,45,85.45454545454545,45,85.45454545454545L0,85.45454545454545C0,85.45454545454545,0,85.45454545454545,0,85.45454545454545L0,3C0,1.344254926518,1.344254926518,0,3,0Z"/></clipPath><clipPath id="clip8"><path d="M3,0L42,0C43.655745073482,0,45,1.344254926518,45,3L45,114.54545454545455C45,114.54545454545455,45,114.54545454545455,45,114.54545454545455L0,114.54545454545455C0,114.54545454545455,0,114.54545454545455,0,114.54545454545455L0,3C0,1.344254926518,1.344254926518,0,3,0Z"/></clipPath><clipPath id="clip9"><path d="M3,0L42,0C43.655745073482,0,45,1.344254926518,45,3L45,85.45454545454545C45,85.45454545454545,45,85.45454545454545,45,85.45454545454545L0,85.45454545454545C0,85.45454545454545,0,85.45454545454545,0,85.45454545454545L0,3C0,1.344254926518,1.344254926518,0,3,0Z"/></clipPath><clipPath id="clip10"><path d="M3,0L42,0C43.655745073482,0,45,1.344254926518,45,3L45,109.09090909090908C45,109.09090909090908,45,109.09090909090908,45,109.09090909090908L0,109.09090909090908C0,109.09090909090908,0,109.09090909090908,0,109.09090909090908L0,3C0,1.344254926518,1.344254926518,0,3,0Z"/></clipPath><clipPath id="clip11"><path d="M3,0L42,0C43.655745073482,0,45,1.344254926518,45,3L45,105.45454545454544C45,105.45454545454544,45,105.45454545454544,45,105.45454545454544L0,105.45454545454544C0,105.45454545454544,0,105.45454545454544,0,105.45454545454544L0,3C0,1.344254926518,1.344254926518,0,3,0Z"/></clipPath></defs></svg>