<svg xmlns="http://www.w3.org/2000/svg" xmlns:xlink="http://www.w3.org/1999/xlink" version="1.1" class="marks" width="592" height="268" viewBox="0 0 592 268"><rect width="592" height="268" fill="white"/><g fill="none" stroke-miterlimit="10" transform="translate(37,11)"><g class="mark-group role-frame root" role="graphics-object" aria-roledescription="group mark container"><g transform="translate(0,0)"><path class="background" aria-hidden="true" d="M0.5,0.5h550v200h-550Z" stroke="#ddd"/><g><g class="mark-group role-axis" aria-hidden="true"><g transform="translate(0.5,0.5)"><path class="background" aria-hidden="true" d="M0,0h0v0h0Z" pointer-events="none"/><g><g class="mark-rule role-axis-grid" pointer-events="none"><line transform="translate(0,200)" x2="550" y2="0" stroke="#ddd" stroke-width="1" opacity="1"/><line transform="translate(0,167)" x2="550" y2="0" stroke="#ddd" stroke-width="1" opacity="1"/><line transform="translate(0,133)" x2="550" y2="0" stroke="#ddd" stroke-width="1" opacity="1"/><line transform="translate(0,100)" x2="550" y2="0" stroke="#ddd" stroke-width="1" opacity="1"/><line transform="translate(0,67)" x2="550" y2="0" stroke="#ddd" stroke-width="1" opacity="1"/><line transform="translate(0,33)" x2="550" y2="0" stroke="#ddd" stroke-width="1" opacity="1"/><line transform="translate(0,0)" x2="550" y2="0" stroke="#ddd" stroke-width="1" opacity="1"/></g></g><path class="foreground" aria-hidden="true" d="" pointer-events="none" display="none"/></g></g><g class="mark-group role-axis" role="graphics-symbol" aria-roledescription="axis" aria-label="X-axis titled 'Década' for a discrete scale with 16 values: 1870, 1880, 1890, 1900, 1910, ending with 2020"><g transform="translate(0.5,200.5)"><path class="background" aria-hidden="true" d="M0,0h0v0h0Z" pointer-events="none"/><g><g class="mark-rule role-axis-tick" pointer-events="none"><line transform="translate(17,0)" x2="0" y2="5" stroke="#888" stroke-width="1" opacity="1"/><line transform="translate(52,0)" x2="0" y2="5" stroke="#888" stroke-width="1" opacity="1"/><line transform="translate(86,0)" x2="0" y2="5" stroke="#888" stroke-width="1" opacity="1"/><line transform="translate(120,0)" x2="0" y2="5" stroke="#888" stroke-width="1" opacity="1"/><line transform="translate(155,0)" x2="0" y2="5" stroke="#888" stroke-width="1" opacity="1"/><line transform="translate(189,0)" x2="0" y2="5" stroke="#888" stroke-width="1" opacity="1"/><line transform="translate(223,0)" x2="0" y2="5" stroke="#888" stroke-width="1" opacity="1"/><line transform="translate(258,0)" x2="0" y2="5" stroke="#888" stroke-width="1" opacity="1"/><line transform="translate(292,0)" x2="0" y2="5" stroke="#888" stroke-width="1" opacity="1"/><line transform="translate(327,0)" x2="0" y2="5" stroke="#888" stroke-width="1" opacity="1"/><line transform="translate(361,0)" x2="0" y2="5" stroke="#888" stroke-width="1" opacity="1"/><line transform="translate(395,0)" x2="0" y2="5" stroke="#888" stroke-width="1" opacity="1"/><line transform="translate(430,0)" x2="0" y2="5" stroke="#888" stroke-width="1" opacity="1"/><line transform="translate(464,0)" x2="0" y2="5" stroke="#888" stroke-width="1" opacity="1"/><line transform="translate(498,0)" x2="0" y2="5" stroke="#888" stroke-width="1" opacity="1"/><line transform="translate(533,0)" x2="0" y2="5" stroke="#888" stroke-width="1" opacity="1"/></g><g class="mark-text role-axis-label" pointer-events="none"><text text-anchor="end" transform="translate(17.1875,7) rotate(315) translate(0,9)" font-family="sans-serif" font-size="12px" fill="#000" opacity="1">1870</text><text text-anchor="end" transform="translate(51.5625,7) rotate(315) translate(0,9)" font-family="sans-serif" font-size="12px" fill="#000" opacity="1">1880</text><text text-anchor="end" transform="translate(85.9375,7) rotate(315) translate(0,9)" font-family="sans-serif" font-size="12px" fill="#000" opacity="1">1890</text><text text-anchor="end" transform="translate(120.3125,7) rotate(315) translate(0,9)" font-family="sans-serif" font-size="12px" fill="#000" opacity="1">1900</text><text text-anchor="end" transform="translate(154.6875,7) rotate(315) translate(0,9)" font-family="sans-serif" font-size="12px" fill="#000" opacity="1">1910</text><text text-anchor="end" transform="translate(189.0625,7) rotate(315) translate(0,9)" font-family="sans-serif" font-size="12px" fill="#000" opacity="1">1920</text><text text-anchor="end" transform="translate(223.4375,7) rotate(315) translate(0,9)" font-family="sans-serif" font-size="12px" fill="#000" opacity="1">1930</text><text text-anchor="end" transform="translate(257.8125,7) rotate(315) translate(0,9)" font-family="sans-serif" font-size="12px" fill="#000" opacity="1">1940</text><text text-anchor="end" transform="translate(292.1875,7) rotate(315) translate(0,9)" font-family="sans-serif" font-size="12px" fill="#000" opacity="1">1950</text><text text-anchor="end" transform="translate(326.5625,7) rotate(315) translate(0,9)" font-family="sans-serif" font-size="12px" fill="#000" opacity="1">1960</text><text text-anchor="end" transform="translate(360.9375,7) rotate(315) translate(0,9)" font-family="sans-serif" font-size="12px" fill="#000" opacity="1">1970</text><text text-anchor="end" transform="translate(395.3125,7) rotate(315) translate(0,9)" font-family="sans-serif" font-size="12px" fill="#000" opacity="1">1980</text><text text-anchor="end" transform="translate(429.6875,7) rotate(315) translate(0,9)" font-family="sans-serif" font-size="12px" fill="#000" opacity="1">1990</text><text text-anchor="end" transform="translate(464.0625,7) rotate(315) translate(0,9)" font-family="sans-serif" font-size="12px" fill="#000" opacity="1">2000</text><text text-anchor="end" transform="translate(498.4375,7) rotate(315) translate(0,9)" font-family="sans-serif" font-size="12px" fill="#000" opacity="1">2010</text><text text-anchor="end" transform="translate(532.8125,7) rotate(315) translate(0,9)" font-family="sans-serif" font-size="12px" fill="#000" opacity="1">2020</text></g><g class="mark-rule role-axis-domain" pointer-events="none"><line transform="translate(0,0)" x2="550" y2="0" stroke="#888" stroke-width="1" opacity="1"/></g><g class="mark-text role-axis-title" pointer-events="none"><text text-anchor="middle" transform="translate(275,48.65461108769608)" font-family="sans-serif" font-size="14px" font-weight="bold" fill="#000" opacity="1">Década</text></g></g><path class="foreground" aria-hidden="true" d="" pointer-events="none" display="none"/></g></g><g class="mark-group role-axis" role="graphics-symbol" aria-roledescription="axis" aria-label="Y-axis titled 'Média de Gols por Jogo' for a linear scale with values from 0 to 6"><g transform="translate(0.5,0.5)"><path class="background" aria-hidden="true" d="M0,0h0v0h0Z" pointer-events="none"/><g><g class="mark-rule role-axis-tick" pointer-events="none"><line transform="translate(0,200)" x2="-5" y2="0" stroke="#888" stroke-width="1" opacity="1"/><line transform="translate(0,167)" x2="-5" y2="0" stroke="#888" stroke-width="1" opacity="1"/><line transform="translate(0,133)" x2="-5" y2="0" stroke="#888" stroke-width="1" opacity="1"/><line transform="translate(0,100)" x2="-5" y2="0" stroke="#888" stroke-width="1" opacity="1"/><line transform="translate(0,67)" x2="-5" y2="0" stroke="#888" stroke-width="1" opacity="1"/><line transform="translate(0,33)" x2="-5" y2="0" stroke="#888" stroke-width="1" opacity="1"/><line transform="translate(0,0)" x2="-5" y2="0" stroke="#888" stroke-width="1" opacity="1"/></g><g class="mark-text role-axis-label" pointer-events="none"><text text-anchor="end" transform="translate(-7,204)" font-family="sans-serif" font-size="12px" fill="#000" opacity="1">0</text><text text-anchor="end" transform="translate(-7,170.66666666666669)" font-family="sans-serif" font-size="12px" fill="#000" opacity="1">1</text><text text-anchor="end" transform="translate(-7,137.33333333333334)" font-family="sans-serif" font-size="12px" fill="#000" opacity="1">2</text><text text-anchor="end" transform="translate(-7,104)" font-family="sans-serif" font-size="12px" fill="#000" opacity="1">3</text><text text-anchor="end" transform="translate(-7,70.66666666666667)" font-family="sans-serif" font-size="12px" fill="#000" opacity="1">4</text><text text-anchor="end" transform="translate(-7,37.33333333333333)" font-family="sans-serif" font-size="12px" fill="#000" opacity="1">5</text><text text-anchor="end" transform="translate(-7,4)" font-family="sans-serif" font-size="12px" fill="#000" opacity="1">6</text></g><g class="mark-rule role-axis-domain" pointer-events="none"><line transform="translate(0,200)" x2="0" y2="-200" stroke="#888" stroke-width="1" opacity="1"/></g><g class="mark-text role-axis-title" pointer-events="none"><text text-anchor="middle" transform="translate(-17.673828125,100) rotate(-90) translate(0,-3)" font-family="sans-serif" font-size="14px" font-weight="bold" fill="#000" opacity="1">Média de Gols por Jogo</text></g></g><path class="foreground" aria-hidden="true" d="" pointer-events="none" display="none"/></g></g><g class="mark-line role-mark layer_0_marks" role="graphics-object" aria-roledescription="line mark container"><path aria-label="Década: 1870; Média de Gols por Jogo: 4.53846153846; Média de Gols: 4.54" role="graphics-symbol" aria-roledescription="line mark" d="M17.188,48.718L51.563,13.939L85.938,28.249L120.313,63.457L154.688,61.458L189.063,70.701L223.438,55.843L257.813,55.182L292.188,66.505L326.563,83.742L360.938,100.831L395.313,115.771L429.688,107.356L464.063,106.625L498.438,108.928L532.813,110.777" stroke="#1f77b4" stroke-width="2"/></g><g class="mark-symbol role-mark layer_1_marks" role="graphics-object" aria-roledescription="symbol mark container"><path aria-label="Década: 1870; Média de Gols por Jogo: 4.53846153846; Média de Gols: 4.54" role="graphics-symbol" aria-roledescription="point" transform="translate(17.1875,48.71794871794872)" d="M2.739,0A2.739,2.739,0,1,1,-2.739,0A2.739,2.739,0,1,1,2.739,0" fill="#4c78a8" stroke-width="2" opacity="1"/><path aria-label="Década: 1880; Média de Gols por Jogo: 5.58181818182; Média de Gols: 5.58" role="graphics-symbol" aria-roledescription="point" transform="translate(51.5625,13.939393939393941)" d="M2.739,0A2.739,2.739,0,1,1,-2.739,0A2.739,2.739,0,1,1,2.739,0" fill="#4c78a8" stroke-width="2" opacity="1"/><path aria-label="Década: 1890; Média de Gols por Jogo: 5.15254237288; Média de Gols: 5.15" role="graphics-symbol" aria-roledescription="point" transform="translate(85.9375,28.248587570621385)" d="M2.739,0A2.739,2.739,0,1,1,-2.739,0A2.739,2.739,0,1,1,2.739,0" fill="#4c78a8" stroke-width="2" opacity="1"/><path aria-label="Década: 1900; Média de Gols por Jogo: 4.0962962963; Média de Gols: 4.10" role="graphics-symbol" aria-roledescription="point" transform="translate(120.3125,63.45679012345678)" d="M2.739,0A2.739,2.739,0,1,1,-2.739,0A2.739,2.739,0,1,1,2.739,0" fill="#4c78a8" stroke-width="2" opacity="1"/><path aria-label="Década: 1910; Média de Gols por Jogo: 4.15625; Média de Gols: 4.16" role="graphics-symbol" aria-roledescription="point" transform="translate(154.6875,61.45833333333346)" d="M2.739,0A2.739,2.739,0,1,1,-2.739,0A2.739,2.739,0,1,1,2.739,0" fill="#4c78a8" stroke-width="2" opacity="1"/><path aria-label="Década: 1920; Média de Gols por Jogo: 3.87897310513; Média de Gols: 3.88" role="graphics-symbol" aria-roledescription="point" transform="translate(189.0625,70.70089649551761)" d="M2.739,0A2.739,2.739,0,1,1,-2.739,0A2.739,2.739,0,1,1,2.739,0" fill="#4c78a8" stroke-width="2" opacity="1"/><path aria-label="Década: 1930; Média de Gols por Jogo: 4.32472324723; Média de Gols: 4.32" role="graphics-symbol" aria-roledescription="point" transform="translate(223.4375,55.84255842558434)" d="M2.739,0A2.739,2.739,0,1,1,-2.739,0A2.739,2.739,0,1,1,2.739,0" fill="#4c78a8" stroke-width="2" opacity="1"/><path aria-label="Década: 1940; Média de Gols por Jogo: 4.34453781513; Média de Gols: 4.34" role="graphics-symbol" aria-roledescription="point" transform="translate(257.8125,55.18207282913179)" d="M2.739,0A2.739,2.739,0,1,1,-2.739,0A2.739,2.739,0,1,1,2.739,0" fill="#4c78a8" stroke-width="2" opacity="1"/><path aria-label="Década: 1950; Média de Gols por Jogo: 4.00484261501; Média de Gols: 4.00" role="graphics-symbol" aria-roledescription="point" transform="translate(292.1875,66.50524616626316)" d="M2.739,0A2.739,2.739,0,1,1,-2.739,0A2.739,2.739,0,1,1,2.739,0" fill="#4c78a8" stroke-width="2" opacity="1"/><path aria-label="Década: 1960; Média de Gols por Jogo: 3.4877475663; Média de Gols: 3.49" role="graphics-symbol" aria-roledescription="point" transform="translate(326.5625,83.7417477900861)" d="M2.739,0A2.739,2.739,0,1,1,-2.739,0A2.739,2.739,0,1,1,2.739,0" fill="#4c78a8" stroke-width="2" opacity="1"/><path aria-label="Década: 1970; Média de Gols por Jogo: 2.97507260407; Média de Gols: 2.98" role="graphics-symbol" aria-roledescription="point" transform="translate(360.9375,100.83091319780553)" d="M2.739,0A2.739,2.739,0,1,1,-2.739,0A2.739,2.739,0,1,1,2.739,0" fill="#4c78a8" stroke-width="2" opacity="1"/><path aria-label="Década: 1980; Média de Gols por Jogo: 2.52687101911; Média de Gols: 2.53" role="graphics-symbol" aria-roledescription="point" transform="translate(395.3125,115.77096602972392)" d="M2.739,0A2.739,2.739,0,1,1,-2.739,0A2.739,2.739,0,1,1,2.739,0" fill="#4c78a8" stroke-width="2" opacity="1"/><path aria-label="Década: 1990; Média de Gols por Jogo: 2.77932920685; Média de Gols: 2.78" role="graphics-symbol" aria-roledescription="point" transform="translate(429.6875,107.35569310493732)" d="M2.739,0A2.739,2.739,0,1,1,-2.739,0A2.739,2.739,0,1,1,2.739,0" fill="#4c78a8" stroke-width="2" opacity="1"/><path aria-label="Década: 2000; Média de Gols por Jogo: 2.80125984252; Média de Gols: 2.80" role="graphics-symbol" aria-roledescription="point" transform="translate(464.0625,106.6246719160104)" d="M2.739,0A2.739,2.739,0,1,1,-2.739,0A2.739,2.739,0,1,1,2.739,0" fill="#4c78a8" stroke-width="2" opacity="1"/><path aria-label="Década: 2010; Média de Gols por Jogo: 2.73215750615; Média de Gols: 2.73" role="graphics-symbol" aria-roledescription="point" transform="translate(498.4375,108.92808312824722)" d="M2.739,0A2.739,2.739,0,1,1,-2.739,0A2.739,2.739,0,1,1,2.739,0" fill="#4c78a8" stroke-width="2" opacity="1"/><path aria-label="Década: 2020; Média de Gols por Jogo: 2.67669819433; Média de Gols: 2.68" role="graphics-symbol" aria-roledescription="point" transform="translate(532.8125,110.77672685583283)" d="M2.739,0A2.739,2.739,0,1,1,-2.739,0A2.739,2.739,0,1,1,2.739,0" fill="#4c78a8" stroke-width="2" opacity="1"/></g></g><path class="foreground" aria-hidden="true" d="" display="none"/></g></g></g></svg>